<svg width="251" height="200" viewBox="0 0 251 200" fill="none" xmlns="http://www.w3.org/2000/svg">
<g clip-path="url(#clip0)">
<path d="M249.26 0.546746C246.131 2.56649 242.989 4.50477 239.834 6.36156C239.605 6.49664 239.377 6.63172 239.149 6.76358C235.225 9.05992 231.285 11.2255 227.329 13.2602C227.133 13.3631 226.937 13.4628 226.741 13.5625C220.141 16.9395 213.518 19.9509 206.871 22.5967C206.646 22.6868 206.421 22.7768 206.196 22.8636C202.082 24.4846 197.967 25.9619 193.849 27.2955C193.627 27.3663 193.402 27.4403 193.18 27.5078C192.926 27.5914 192.672 27.6718 192.418 27.7522C185.472 29.9454 178.41 31.7545 171.265 33.1715C171.001 33.2229 170.741 33.2744 170.48 33.3258C165.621 34.2649 160.746 35.0154 155.857 35.5771C155.635 35.6061 155.416 35.6318 155.194 35.6543C148.246 36.4314 141.261 36.8212 134.27 36.8218C117.784 36.8218 100.944 34.6412 84.0945 30.3316C83.8533 30.2705 83.6121 30.2094 83.3709 30.1418C80.5277 29.4085 77.6835 28.612 74.8383 27.7522C73.0534 27.2119 71.2631 26.6469 69.4673 26.0573C69.2518 25.9866 69.0364 25.9158 68.8209 25.8418C61.1857 23.3107 53.498 20.3304 45.7578 16.9009C45.523 16.798 45.2883 16.6919 45.0502 16.5857C40.3901 14.5081 35.7192 12.2696 31.0375 9.87039C30.838 9.77068 30.6386 9.66777 30.4393 9.56164C25.0105 6.77001 19.5784 3.76719 14.1431 0.553175L14.471 0C20.0961 3.32551 25.7105 6.42052 31.314 9.28505L31.3302 9.29148C35.8521 11.6071 40.3665 13.7705 44.8734 15.7817C52.6876 19.2825 60.6738 22.3858 68.8016 25.0796C69.3386 25.2565 69.8726 25.4334 70.4097 25.6006C74.9445 27.0672 79.4717 28.3762 83.9915 29.5275C84.236 29.5919 84.4772 29.653 84.7216 29.7141C108.389 35.6768 131.778 37.3996 154.888 34.8825C155.11 34.8632 155.329 34.8374 155.551 34.8085C160.153 34.2971 164.742 33.6131 169.316 32.7566C170.104 32.6086 170.892 32.4575 171.68 32.2967C178.764 30.8816 185.765 29.0811 192.653 26.9032C192.875 26.8324 193.1 26.7617 193.322 26.6877C197.654 25.3079 201.972 23.7717 206.276 22.0789C206.501 21.9889 206.727 21.902 206.952 21.812C213.432 19.2423 219.881 16.322 226.297 13.0512C226.493 12.9547 226.689 12.855 226.885 12.7489C231.015 10.6358 235.129 8.37597 239.229 5.96921C239.46 5.83735 239.689 5.70226 239.917 5.56397C242.924 3.78865 245.923 1.93614 248.913 0.00644841L249.26 0.546746Z" fill="#F2F2F2"/>
<path d="M44.8734 15.7817L31.3302 9.29148L31.314 9.28504L30.5615 8.92484L30.4393 9.56163L26.715 28.9261L45.7578 16.9009L46.3851 16.5053L44.8734 15.7817ZM27.6283 27.5882L31.0375 9.87038V9.86395L45.0567 16.5825L45.0502 16.5857L27.6283 27.5882Z" fill="#F2F2F2"/>
<path d="M83.9915 29.5276L83.3709 30.1418L69.9015 43.4214L69.4673 26.0573L69.4512 25.3755L70.4097 25.6006C69.8726 25.4334 69.3387 25.2565 68.8016 25.0796L68.8209 25.8418L69.2969 44.9201L84.0945 30.3316L84.7216 29.7141C84.4772 29.653 84.236 29.5919 83.9915 29.5276Z" fill="#F2F2F2"/>
<path d="M169.316 32.7566L170.834 32.5733L170.48 33.3258L162.028 51.2141L155.857 35.5771L155.551 34.8085C155.329 34.8374 155.11 34.8632 154.888 34.8824L155.194 35.6543L161.977 52.8318L171.265 33.1715L171.68 32.2967C170.892 32.4575 170.104 32.6086 169.316 32.7566Z" fill="#F2F2F2"/>
<path d="M206.276 22.0789L206.196 22.8637L204.507 39.533L193.849 27.2955L193.322 26.6877C193.1 26.7616 192.875 26.8324 192.653 26.9031L193.18 27.5078L204.996 41.0768L206.871 22.5967L206.952 21.812C206.727 21.902 206.501 21.9889 206.276 22.0789Z" fill="#F2F2F2"/>
<path d="M239.229 5.96919L239.149 6.76358L237.283 24.7419L227.329 13.2602L226.885 12.7489C226.689 12.855 226.493 12.9547 226.297 13.0511L226.741 13.5625L237.769 26.2856L239.834 6.36155L239.917 5.56393C239.689 5.70225 239.461 5.83733 239.229 5.96919Z" fill="#F2F2F2"/>
<path d="M155.446 119.676C151.498 116.341 149.101 111.072 149.73 105.943C150.358 100.814 154.253 96.099 159.304 95.0098C164.356 93.9206 170.114 96.9356 171.648 101.87C172.493 92.3566 173.466 82.4445 178.524 74.3429C183.103 67.0071 191.036 61.758 199.633 60.8189C208.23 59.8799 217.281 63.4266 222.643 70.2121C228.005 76.9976 229.317 86.8622 225.562 94.6525C222.796 100.391 217.699 104.662 212.36 108.137C195.105 119.27 174.41 123.797 154.082 120.886L155.446 119.676Z" fill="#F2F2F2"/>
<path d="M214.142 63.6232C207.048 69.401 200.54 75.863 194.713 82.9158C185.593 93.9156 178.213 106.248 172.83 119.484C172.436 120.45 174.004 120.87 174.393 119.916C183.201 98.4041 197.261 79.4442 215.288 64.7698C216.098 64.1106 214.944 62.9694 214.142 63.6232Z" fill="white"/>
<path d="M73.6211 172.987C72.8171 173.106 72.0109 173.213 71.2026 173.306C51.6327 175.533 31.8955 170.915 15.3443 160.239C10.0054 156.765 4.90776 152.494 2.14199 146.753C-1.61454 138.964 -0.299185 129.1 5.06228 122.314C7.01418 119.864 9.41972 117.813 12.1474 116.274C12.5527 116.039 12.9643 115.82 13.3824 115.611C17.9206 113.328 23.0179 112.394 28.0707 112.919C36.6673 113.858 44.6017 119.11 49.1814 126.443C54.2373 134.545 55.2117 144.457 56.0544 153.97C56.1219 153.752 56.1992 153.536 56.2828 153.327C56.4608 152.879 56.6759 152.446 56.926 152.034V167.838C56.9275 169.117 57.4363 170.344 58.3407 171.248C59.2451 172.152 60.4712 172.661 61.7502 172.663H73.2544L73.6211 172.987Z" fill="#F2F2F2"/>
<path d="M13.5624 115.725C20.6559 121.503 27.1635 127.965 32.9911 135.018C38.8195 142.063 43.9508 149.657 48.3129 157.694C50.7511 162.202 52.9414 166.839 54.874 171.586C55.2681 172.552 53.7001 172.972 53.3104 172.017C49.8873 163.649 45.6522 155.636 40.6659 148.093C35.7039 140.578 30.0245 133.562 23.7077 127.144C20.1348 123.515 16.3652 120.086 12.4158 116.872C11.6063 116.212 12.7595 115.071 13.5624 115.725H13.5624Z" fill="white"/>
<path d="M167.723 136.642H84.2633V127.476C84.2633 126.665 83.9414 125.888 83.3684 125.315C82.7954 124.742 82.0183 124.42 81.2079 124.42C80.3976 124.42 79.6205 124.742 79.0475 125.315C78.4745 125.888 78.1526 126.665 78.1526 127.476V139.697C78.155 140.507 78.4776 141.282 79.0501 141.855C79.6226 142.427 80.3983 142.75 81.2079 142.752H167.723C168.533 142.752 169.31 142.43 169.883 141.857C170.456 141.285 170.778 140.507 170.778 139.697C170.778 138.887 170.456 138.11 169.883 137.537C169.31 136.964 168.533 136.642 167.723 136.642Z" fill="#F2F2F2"/>
<path d="M250.425 199.98H12.9781C12.8768 199.98 12.7797 199.94 12.7081 199.868C12.6365 199.796 12.5963 199.699 12.5963 199.597C12.5963 199.496 12.6365 199.399 12.7081 199.327C12.7797 199.255 12.8768 199.215 12.9781 199.214H250.425C250.527 199.215 250.624 199.255 250.695 199.327C250.767 199.399 250.807 199.496 250.807 199.597C250.807 199.699 250.767 199.796 250.695 199.868C250.624 199.94 250.527 199.98 250.425 199.98Z" fill="#3F3D56"/>
<path d="M222.236 172.663H41.1664C39.717 172.665 38.3275 173.241 37.3026 174.266C36.2777 175.291 35.701 176.681 35.699 178.13V194.533C35.701 195.982 36.2777 197.371 37.3026 198.396C38.3275 199.421 39.717 199.998 41.1664 200H222.236C223.686 199.998 225.075 199.421 226.1 198.396C227.125 197.371 227.702 195.982 227.704 194.533V178.13C227.702 176.681 227.125 175.291 226.1 174.266C225.075 173.241 223.686 172.665 222.236 172.663ZM227.06 194.533C227.059 195.812 226.55 197.038 225.646 197.942C224.741 198.846 223.515 199.355 222.236 199.357H41.1664C39.8875 199.355 38.6613 198.846 37.7569 197.942C36.8525 197.038 36.3438 195.812 36.3422 194.533V178.13C36.3438 176.851 36.8525 175.625 37.7569 174.721C38.6613 173.816 39.8875 173.307 41.1664 173.306H222.236C223.515 173.307 224.741 173.816 225.646 174.721C226.55 175.625 227.059 176.851 227.06 178.13V194.533Z" fill="#3F3D56"/>
<path d="M213.392 190.03H45.991V180.864C45.991 180.054 45.6691 179.276 45.0961 178.703C44.5231 178.13 43.746 177.809 42.9357 177.809C42.1253 177.809 41.3482 178.13 40.7752 178.703C40.2022 179.276 39.8803 180.054 39.8803 180.864V193.085C39.8827 193.895 40.2053 194.671 40.7778 195.243C41.3503 195.816 42.1261 196.138 42.9357 196.141H213.392C214.202 196.141 214.98 195.819 215.552 195.246C216.125 194.673 216.447 193.896 216.447 193.085C216.447 192.275 216.125 191.498 215.552 190.925C214.98 190.352 214.202 190.03 213.392 190.03Z" fill="#F2F2F2"/>
<path d="M183.482 161.728H66.896V152.562C66.896 151.751 66.5741 150.974 66.0012 150.401C65.4282 149.828 64.651 149.506 63.8407 149.506C63.0304 149.506 62.2532 149.828 61.6802 150.401C61.1072 150.974 60.7853 151.751 60.7853 152.562V164.783C60.7877 165.593 61.1104 166.368 61.6828 166.941C62.2553 167.513 63.0311 167.836 63.8407 167.838H183.482C184.292 167.838 185.069 167.517 185.642 166.944C186.215 166.371 186.537 165.593 186.537 164.783C186.537 163.973 186.215 163.196 185.642 162.623C185.069 162.05 184.292 161.728 183.482 161.728Z" fill="#F2F2F2"/>
<path d="M194.873 182.977C169.144 176.545 114.469 185.55 113.504 185.55C112.562 185.55 52.7478 194.442 54.7193 173.306C54.7386 173.094 54.7643 172.881 54.7965 172.663H215.357C215.395 172.852 215.434 173.068 215.469 173.306C216.09 177.497 215.785 188.206 194.873 182.977Z" fill="#FAB1A0"/>
<path d="M201.974 145.969H61.7499C60.3004 145.971 58.911 146.547 57.8861 147.572C56.8612 148.597 56.2845 149.987 56.2824 151.436V167.838C56.2857 169.287 56.8628 170.676 57.8875 171.701C58.9121 172.725 60.3008 173.303 61.7499 173.306H201.974C203.423 173.301 204.81 172.723 205.834 171.699C206.859 170.674 207.436 169.287 207.442 167.838V151.436C207.44 149.987 206.863 148.597 205.838 147.572C204.813 146.547 203.424 145.971 201.974 145.969ZM206.799 167.838C206.796 169.117 206.287 170.343 205.383 171.247C204.479 172.151 203.253 172.66 201.974 172.663H61.7499C60.4712 172.66 59.2456 172.151 58.3414 171.247C57.4373 170.343 56.9282 169.117 56.9256 167.838V151.436C56.9272 150.157 57.436 148.931 58.3403 148.026C59.2447 147.122 60.4709 146.613 61.7499 146.612H201.974C203.253 146.613 204.479 147.122 205.384 148.026C206.288 148.931 206.797 150.157 206.799 151.436V167.838Z" fill="#3F3D56"/>
<path d="M184.135 155.006C161.646 149.384 113.857 157.255 113.014 157.255C112.19 157.255 59.9093 165.028 61.6325 146.553C61.6494 146.368 61.6719 146.182 61.7 145.991H202.039C202.072 146.157 202.106 146.345 202.137 146.553C202.68 150.216 202.413 159.577 184.135 155.006Z" fill="#FAB1A0"/>
<path d="M184.607 146.29H78.7958C77.3463 146.289 75.9565 145.712 74.9316 144.687C73.9066 143.662 73.33 142.272 73.3284 140.823V124.42C73.33 122.971 73.9066 121.581 74.9316 120.556C75.9565 119.531 77.3463 118.954 78.7958 118.953H184.607C186.057 118.954 187.447 119.531 188.472 120.556C189.497 121.581 190.073 122.971 190.075 124.42V140.823C190.073 142.272 189.497 143.662 188.472 144.687C187.447 145.712 186.057 146.289 184.607 146.29ZM78.7958 119.596C77.5168 119.597 76.2906 120.106 75.3862 121.011C74.4818 121.915 73.973 123.141 73.9716 124.42V140.823C73.973 142.102 74.4818 143.328 75.3862 144.232C76.2906 145.137 77.5168 145.645 78.7958 145.647H184.607C185.886 145.645 187.113 145.137 188.017 144.232C188.922 143.328 189.43 142.102 189.432 140.823V124.42C189.43 123.141 188.922 121.915 188.017 121.011C187.113 120.106 185.886 119.597 184.607 119.596H78.7958Z" fill="#3F3D56"/>
<path d="M171.961 125.901C154.717 121.589 118.072 127.625 117.425 127.625C116.793 127.625 76.7038 133.585 78.0252 119.419C78.0381 119.276 78.0554 119.134 78.0769 118.988H185.69C185.716 119.115 185.742 119.259 185.766 119.419C186.182 122.228 185.977 129.406 171.961 125.901Z" fill="#FAB1A0"/>
<path d="M131.836 120.583C137.876 120.583 142.771 120.151 142.771 119.619C142.771 119.086 137.876 118.654 131.836 118.654C125.797 118.654 120.901 119.086 120.901 119.619C120.901 120.151 125.797 120.583 131.836 120.583Z" fill="#3F3D56"/>
<path d="M131.219 83.8057C131.211 83.9834 131.216 84.1616 131.235 84.3385L119.018 94.592L115.374 93.2728L112.665 98.5111L120.63 102.303L133.987 87.3144C134.662 87.4368 135.357 87.3509 135.982 87.0682C136.606 86.7856 137.13 86.3195 137.483 85.732C137.836 85.1445 138.002 84.4634 137.958 83.7793C137.915 83.0952 137.664 82.4405 137.24 81.9024C136.815 81.3642 136.237 80.968 135.582 80.7665C134.927 80.5651 134.226 80.5678 133.572 80.7744C132.919 80.981 132.343 81.3817 131.923 81.9232C131.503 82.4647 131.257 83.1213 131.219 83.8057V83.8057Z" fill="#FFB8B8"/>
<path d="M114.833 101.024L103.035 96.7653C102.499 96.572 102.005 96.2749 101.583 95.8909C101.162 95.5069 100.819 95.0435 100.577 94.5272C100.334 94.0109 100.196 93.4519 100.169 92.882C100.142 92.3121 100.229 91.7426 100.422 91.206C100.616 90.6695 100.913 90.1763 101.298 89.7547C101.682 89.3332 102.146 88.9915 102.662 88.7493C103.179 88.507 103.738 88.3689 104.308 88.3429C104.878 88.3168 105.447 88.4033 105.984 88.5975L117.782 92.8559C117.96 92.9204 118.125 93.0195 118.265 93.1475C118.406 93.2755 118.519 93.43 118.6 93.602C118.681 93.774 118.727 93.9602 118.736 94.1501C118.745 94.3399 118.716 94.5296 118.651 94.7084L116.686 100.154C116.555 100.514 116.287 100.809 115.94 100.972C115.592 101.135 115.194 101.153 114.833 101.024Z" fill="#2F2E41"/>
<path d="M130.898 75.8563C130.812 75.8563 130.731 75.8224 130.67 75.7621C130.61 75.7018 130.576 75.62 130.576 75.5347V63.6349C130.576 63.5496 130.61 63.4678 130.67 63.4075C130.731 63.3472 130.812 63.3133 130.898 63.3133C130.983 63.3133 131.065 63.3472 131.125 63.4075C131.185 63.4678 131.219 63.5496 131.219 63.6349V75.5347C131.219 75.62 131.185 75.7018 131.125 75.7621C131.065 75.8224 130.983 75.8563 130.898 75.8563Z" fill="#3F3D56"/>
<path d="M136.365 61.062C139.358 63.8427 135.626 69.7456 131.541 69.7456C129.579 69.7456 127.698 68.9663 126.31 67.579C124.923 66.1918 124.144 64.3103 124.144 62.3484C124.144 58.2631 132.139 40.2416 130.576 44.0163C130.077 45.2213 132.938 57.8775 136.365 61.062Z" fill="#FF6584"/>
<path d="M133.792 107.857H128.325C127.941 107.857 127.573 107.704 127.302 107.433C127.03 107.161 126.878 106.793 126.877 106.41V73.605C126.878 73.2213 127.03 72.8535 127.302 72.5821C127.573 72.3108 127.941 72.1582 128.325 72.1578H133.792C134.176 72.1582 134.544 72.3108 134.815 72.5821C135.086 72.8535 135.239 73.2213 135.239 73.605V106.41C135.239 106.793 135.086 107.161 134.815 107.433C134.544 107.704 134.176 107.857 133.792 107.857Z" fill="#CCCCCC"/>
<path d="M106.193 142.51H110.136L112.011 127.301L106.192 127.301L106.193 142.51Z" fill="#FFB8B8"/>
<path d="M117.74 146.17L105.348 146.171L105.348 141.383L112.952 141.383C114.222 141.383 115.44 141.887 116.338 142.785C117.236 143.683 117.74 144.901 117.74 146.17Z" fill="#2F2E41"/>
<path d="M96.4484 137.416L99.6739 139.684L109.956 128.322L105.196 124.975L96.4484 137.416Z" fill="#FFB8B8"/>
<path d="M103.789 147.053L93.6513 139.925L96.4051 136.009L102.626 140.382C103.664 141.113 104.37 142.226 104.589 143.477C104.807 144.728 104.519 146.014 103.789 147.053L103.789 147.053Z" fill="#2F2E41"/>
<path d="M114.821 115.113C114.821 115.113 124.66 113.952 122.894 120.337C121.128 126.723 101.449 132.237 101.449 132.237L114.821 115.113Z" fill="#FFB8B8"/>
<path d="M108.048 82.5329C112.411 82.5329 115.947 78.9963 115.947 74.6337C115.947 70.2711 112.411 66.7345 108.048 66.7345C103.685 66.7345 100.149 70.2711 100.149 74.6337C100.149 78.9963 103.685 82.5329 108.048 82.5329Z" fill="#FFB8B8"/>
<path d="M82.8568 130.93C78.3621 125.696 76.7892 117.663 83.9572 110.983C85.7275 109.373 87.732 108.042 89.9021 107.035L95.6792 90.8784C96.2793 89.1913 97.3795 87.7273 98.8331 86.6816C100.287 85.636 102.025 85.0585 103.815 85.0262C105.553 84.9511 107.272 85.4161 108.736 86.3572C110.199 87.2984 111.335 88.6695 111.988 90.2823C112.694 91.923 112.774 93.7652 112.215 95.4614C110.495 100.817 108.237 105.984 105.474 110.884L105.773 113.274L120.375 114.572L120.239 114.793C120.168 114.909 113.021 125.798 103.879 133.025C100.753 135.496 97.5203 136.521 94.4693 136.52C89.8429 136.52 85.6352 134.165 82.8568 130.93Z" fill="#2F2E41"/>
<path d="M131.615 94.837C131.532 94.9942 131.461 95.1578 131.403 95.3261L115.986 99.4145L113.249 96.6719L108.57 100.262L114.168 107.08L132.629 99.1895C133.188 99.5869 133.854 99.8049 134.539 99.8145C135.225 99.824 135.897 99.6247 136.466 99.2429C137.035 98.8612 137.475 98.3152 137.726 97.6776C137.978 97.0399 138.029 96.3408 137.874 95.6732C137.718 95.0057 137.363 94.4012 136.856 93.9404C136.348 93.4795 135.713 93.1841 135.033 93.0933C134.354 93.0025 133.663 93.1207 133.052 93.4322C132.442 93.7437 131.94 94.2337 131.615 94.837H131.615Z" fill="#FFB8B8"/>
<path d="M109.465 103.458L100.595 94.5886C100.192 94.1855 99.8717 93.7069 99.6532 93.18C99.4347 92.6531 99.3221 92.0883 99.322 91.518C99.3218 90.9476 99.434 90.3827 99.6522 89.8557C99.8704 89.3287 100.19 88.8499 100.594 88.4466C100.997 88.0433 101.476 87.7234 102.003 87.5052C102.53 87.287 103.095 87.1747 103.665 87.1749C104.235 87.1751 104.8 87.2876 105.327 87.5061C105.854 87.7246 106.333 88.0448 106.736 88.4484L115.605 97.3176C115.739 97.452 115.846 97.6115 115.919 97.7871C115.991 97.9627 116.029 98.1508 116.029 98.3409C116.029 98.5309 115.991 98.7191 115.919 98.8947C115.846 99.0703 115.739 99.2298 115.605 99.3642L111.511 103.458C111.24 103.729 110.872 103.881 110.488 103.881C110.104 103.881 109.736 103.729 109.465 103.458Z" fill="#2F2E41"/>
<path d="M81.4786 77.1119C82.8761 75.4466 83.4756 73.2684 83.9578 71.1486C84.7207 67.7946 85.3112 64.3263 87.0063 61.3332C88.7012 58.3401 91.8162 55.86 95.2508 56.0488C98.6658 56.2365 101.427 58.984 102.892 62.1101C103.247 61.9722 103.627 61.9105 104.007 61.9288C104.388 61.9471 104.76 62.0451 105.1 62.2165C106.156 62.7949 106.551 64.4389 105.672 65.262C106.596 64.8216 107.603 64.5809 108.627 64.5554C109.651 64.5298 110.669 64.7201 111.614 65.1138C112.83 65.6314 113.88 66.4743 114.647 67.5498C115.415 68.6254 115.871 69.8918 115.966 71.2098C116.002 71.7448 115.929 72.2816 115.75 72.787C115.571 73.2924 115.29 73.7556 114.924 74.148C113.409 75.7082 111.265 75.1701 109.359 74.7726C107.559 74.3972 105.366 74.2958 104.352 76.0111C103.952 76.7259 103.84 77.5662 104.039 78.3606C104.428 80.0729 105.695 81.2656 106.925 82.4071L107.126 82.7808C102.784 83.6276 98.0417 80.6619 96.9025 76.3867C95.7634 72.1114 98.401 67.1794 102.589 65.7532C102.311 65.7618 102.035 65.6959 101.79 65.5623C101.545 65.4286 101.34 65.232 101.197 64.9928C101.054 64.7535 100.977 64.4804 100.974 64.2015C100.972 63.9227 101.044 63.6482 101.183 63.4065C99.9774 62.8037 98.711 62.3714 97.3832 62.4585C95.2199 62.6004 93.3477 64.1403 92.2218 65.9931C91.0959 67.8459 90.5861 69.9964 90.0696 72.102C89.5533 74.2076 88.9944 76.3536 87.7905 78.1567C86.9567 79.4055 85.8425 80.4422 84.5369 81.184C83.2313 81.9258 81.7704 82.3522 80.2707 82.4291C78.7711 82.506 77.2742 82.2314 75.8995 81.6271C74.5249 81.0227 73.3105 80.1055 72.3533 78.9485C73.866 79.682 75.5773 79.8995 77.2254 79.5678C78.8735 79.2361 80.3675 78.3735 81.4786 77.1119Z" fill="#2F2E41"/>
</g>
<defs>
<clipPath id="clip0">
<rect width="250.808" height="200" fill="white"/>
</clipPath>
</defs>
</svg>
