<svg width="312" height="200" viewBox="0 0 312 200" fill="none" xmlns="http://www.w3.org/2000/svg">
<g clip-path="url(#clip0)">
<path d="M23.9959 160.938L21.7984 152.287C17.902 150.639 13.9155 149.211 9.8579 148.011L9.58043 152.032L8.45533 147.602C3.4233 146.168 0 145.536 0 145.536C0 145.536 4.62408 163.087 14.3228 176.504L25.6238 178.486L16.8443 179.749C18.0648 181.214 19.3765 182.602 20.7715 183.903C34.8804 196.974 50.5949 202.971 55.871 197.298C61.1471 191.624 53.9868 176.429 39.8779 163.358C35.5041 159.306 30.0095 156.054 24.5096 153.495L23.9959 160.938Z" fill="#E6E6E6"/>
<path d="M44.8958 151.543L47.4948 143.004C45.0128 139.583 42.3394 136.304 39.4875 133.184L37.1678 136.482L38.4985 132.11C34.9336 128.286 32.3303 125.979 32.3303 125.979C32.3303 125.979 27.1996 143.389 28.5533 159.878L37.2014 167.405L29.0314 163.957C29.3173 165.841 29.7217 167.705 30.242 169.539C35.5505 188.007 45.8971 201.248 53.3518 199.114C60.8065 196.979 62.5464 180.277 57.2379 161.809C55.5923 156.084 52.5728 150.465 49.19 145.437L44.8958 151.543Z" fill="#E6E6E6"/>
<path d="M286.927 169.943L291.854 166.852C292.096 164.113 292.183 161.364 292.114 158.616L289.565 159.25L292.087 157.667C291.969 154.27 291.675 152.028 291.675 152.028C291.675 152.028 281.713 158.401 275.332 167.083L276.366 174.464L273.824 169.291C273.159 170.339 272.561 171.427 272.034 172.55C266.751 183.888 266.178 194.801 270.755 196.925C275.331 199.05 283.324 191.581 288.607 180.243C290.244 176.728 291.161 172.681 291.647 168.769L286.927 169.943Z" fill="#E6E6E6"/>
<path d="M296.942 180.977L302.76 180.873C304.385 178.654 305.884 176.345 307.248 173.957L304.737 173.184L307.716 173.131C309.375 170.162 310.284 168.091 310.284 168.091C310.284 168.091 298.456 168.407 288.497 172.547L285.56 179.399L286.062 173.659C284.951 174.214 283.875 174.837 282.842 175.526C272.448 182.506 266.306 191.553 269.123 195.732C271.941 199.912 282.651 197.641 293.045 190.661C296.267 188.497 299.148 185.506 301.59 182.408L296.942 180.977Z" fill="#E6E6E6"/>
<path d="M310.771 199.089H0.708542V199.87H310.771V199.089Z" fill="#3F3D56"/>
<path d="M88.7332 21.5467L87.9302 21.1446L85.7546 25.4725L86.5576 25.8746L88.7332 21.5467Z" fill="white"/>
<path d="M84.1059 129.849L83.8399 129.88L84.0073 131.313L84.2734 131.282L84.1059 129.849Z" fill="#3F3D56"/>
<path d="M85.6941 142.502L85.6098 142.248L84.2372 142.703L84.3215 142.956L85.6941 142.502Z" fill="white"/>
<path d="M84.4499 135.069L84.1826 135.085L84.2694 136.526L84.5367 136.51L84.4499 135.069Z" fill="white"/>
<path d="M83.2001 127.169L82.9327 127.185L83.0195 128.626L83.2869 128.61L83.2001 127.169Z" fill="white"/>
<path d="M102.303 133.062L102.203 132.814L100.862 133.355L100.962 133.602L102.303 133.062Z" fill="#FF6584"/>
<path d="M86.4941 132.64L86.2354 132.571L85.8611 133.965L86.1198 134.035L86.4941 132.64Z" fill="#FF6584"/>
<path d="M100.874 24.6068H100.03V29.1574H100.874V24.6068Z" fill="#3F3D56"/>
<path d="M100.367 35.5619H99.523V40.1125H100.367V35.5619Z" fill="white"/>
<path d="M99.7277 130.669L99.5497 130.491L98.5887 131.45L98.7667 131.628L99.7277 130.669Z" fill="white"/>
<path d="M102.255 145.199L102.077 145.021L101.116 145.981L101.294 146.158L102.255 145.199Z" fill="white"/>
<path d="M100.239 139.176L99.9956 139.111L99.6438 140.422L99.887 140.487L100.239 139.176Z" fill="#FF6584"/>
<path d="M100.867 134.221L100.689 134.044L99.7277 135.003L99.9057 135.181L100.867 134.221Z" fill="#FF6584"/>
<path d="M97.0013 134.058C97.2178 133.842 97.3395 133.549 97.3395 133.243C97.3395 132.937 97.2178 132.644 97.0013 132.428C96.7848 132.212 96.4911 132.091 96.1849 132.091C95.8786 132.091 95.5849 132.212 95.3684 132.428L58.5253 169.201C58.3087 169.417 58.1871 169.71 58.1871 170.016C58.1871 170.321 58.3087 170.614 58.5253 170.831C58.7418 171.047 59.0355 171.168 59.3417 171.168C59.6479 171.168 59.9416 171.047 60.1582 170.831L96.7642 134.295" fill="#3F3D56"/>
<path d="M100.767 129.417C98.0835 126.742 94.5957 125.017 90.8373 124.508C87.0788 123.998 83.2565 124.731 79.9551 126.595C76.6537 128.459 74.0548 131.351 72.556 134.829C71.0572 138.306 70.741 142.178 71.6557 145.852C72.5704 149.526 74.6656 152.8 77.621 155.173C80.5764 157.546 84.2293 158.887 88.0208 158.992C91.8123 159.097 95.5339 157.959 98.6162 155.753C101.699 153.546 103.972 150.393 105.089 146.775C106.018 143.763 106.106 140.555 105.345 137.497C104.583 134.438 103.001 131.645 100.767 129.417ZM86.5552 148.269C85.3603 147.938 84.2716 147.304 83.3951 146.428C83.2179 146.251 83.0538 146.065 82.8963 145.875C81.8138 144.544 81.2438 142.87 81.2892 141.156C81.3346 139.442 81.9924 137.801 83.1439 136.529C84.2954 135.256 85.8646 134.437 87.5684 134.218C89.2721 133.999 90.9981 134.396 92.4346 135.336C93.8712 136.276 94.9237 137.698 95.4022 139.344C95.8806 140.991 95.7535 142.754 95.0437 144.315C94.3339 145.877 93.0883 147.133 91.5316 147.858C89.975 148.583 88.21 148.729 86.5552 148.269Z" fill="#81ECEC"/>
<path d="M61.4279 33.0885C61.4279 32.0632 61.0199 31.0799 60.2935 30.3549C59.5671 29.6299 58.5819 29.2226 57.5546 29.2226C56.5273 29.2226 55.5421 29.6299 54.8158 30.3549C54.0894 31.0799 53.6813 32.0632 53.6813 33.0885V196.026C53.6813 196.534 53.7815 197.037 53.9761 197.506C54.1708 197.975 54.4561 198.401 54.8157 198.76C55.1754 199.119 55.6024 199.404 56.0724 199.598C56.5423 199.792 57.046 199.892 57.5546 199.892C58.0633 199.892 58.5669 199.792 59.0369 199.598C59.5068 199.404 59.9338 199.119 60.2935 198.76C60.6531 198.401 60.9385 197.975 61.1331 197.506C61.3278 197.037 61.4279 196.534 61.4279 196.026V34.2113" fill="#3F3D56"/>
<path d="M110.836 31.6442C104.185 19.0881 93.1606 9.39493 79.8421 4.39302C66.5236 -0.608882 51.8316 -0.573794 38.5372 4.49167C25.2429 9.55713 14.265 19.3028 7.67432 31.8906C1.0836 44.4784 -0.66445 59.0381 2.75987 72.8237C6.18419 86.6093 14.5442 98.6678 26.2631 106.725C37.9819 114.782 52.2496 118.281 66.3751 116.561C80.5006 114.842 93.5075 108.023 102.943 97.3904C112.378 86.7581 117.588 73.0476 117.593 58.8446C117.596 49.3635 115.277 40.0254 110.836 31.6442ZM71.2025 79.8386C66.5816 82.4419 61.2303 83.4539 55.9754 82.718C50.7206 81.9822 45.8549 79.5396 42.1301 75.7675C38.4054 71.9955 36.0289 67.1041 35.3681 61.8492C34.7072 56.5944 35.7987 51.2685 38.4739 46.6947C41.1491 42.1209 45.2591 38.5538 50.1687 36.5445C55.0782 34.5353 60.5142 34.1959 65.6364 35.5786C70.7586 36.9614 75.282 39.9894 78.5075 44.1947C81.7331 48.4 83.4812 53.5485 83.4818 58.8446C83.4946 63.1185 82.363 67.3182 80.2042 71.0092C78.0453 74.7002 74.9376 77.7484 71.2025 79.8386H71.2025Z" fill="#81ECEC"/>
<path opacity="0.2" d="M59.1648 113.282C44.0288 113.281 29.4872 107.401 18.6191 96.8869C7.75099 86.3723 1.40969 72.0487 0.937969 56.9491C0.917799 57.5781 0.907486 58.2094 0.90703 58.8433C0.905157 66.4803 2.41065 74.043 5.33754 81.0992C8.26443 88.1555 12.5554 94.5672 17.9653 99.9681C23.3752 105.369 29.7981 109.653 36.8672 112.576C43.9363 115.499 51.513 117.004 59.1648 117.004C66.8165 117.004 74.3932 115.499 81.4623 112.576C88.5314 109.653 94.9543 105.369 100.364 99.9681C105.774 94.5672 110.065 88.1555 112.992 81.0992C115.919 74.043 117.424 66.4803 117.422 58.8433C117.422 58.2086 117.412 57.5765 117.392 56.9468C116.921 72.0469 110.579 86.371 99.7112 96.8861C88.843 107.401 74.3011 113.281 59.1648 113.282Z" fill="black"/>
<path opacity="0.2" d="M59.3335 29.8298C53.5843 29.8301 47.9644 31.5319 43.1843 34.7201C38.4042 37.9082 34.6786 42.4395 32.4787 47.7409C30.2787 53.0423 29.7032 58.8757 30.8249 64.5036C31.9466 70.1314 34.7151 75.3009 38.7804 79.3584C42.8456 83.4159 48.025 86.1791 53.6637 87.2986C59.3023 88.4182 65.147 87.8437 70.4585 85.648C75.7701 83.4523 80.31 79.7338 83.5043 74.9629C86.6985 70.1919 88.4036 64.5827 88.404 58.8446C88.3954 51.152 85.3299 43.7769 79.8799 38.3374C74.43 32.898 67.0408 29.8383 59.3335 29.8298ZM71.2025 79.8385C66.5816 82.4419 61.2302 83.4539 55.9754 82.718C50.7206 81.9822 45.8549 79.5395 42.1301 75.7675C38.4053 71.9955 36.0289 67.1041 35.3681 61.8492C34.7072 56.5943 35.7987 51.2685 38.4739 46.6947C41.1491 42.1209 45.259 38.5538 50.1686 36.5445C55.0782 34.5353 60.5141 34.1959 65.6364 35.5786C70.7586 36.9614 75.282 39.9893 78.5075 44.1946C81.7331 48.4 83.4812 53.5485 83.4817 58.8446C83.4945 63.1185 82.363 67.3181 80.2041 71.0091C78.0453 74.7001 74.9376 77.7484 71.2025 79.8385Z" fill="black"/>
<path d="M110.837 30.9456V40.6181C110.837 41.3243 110.626 42.0145 110.23 42.5998C109.834 43.1851 109.272 43.6387 108.615 43.9022C107.959 44.1656 107.238 44.2268 106.546 44.078C105.855 43.9291 105.224 43.577 104.734 43.067V44.1692C104.734 45.2836 104.291 46.3523 103.501 47.1403C102.712 47.9283 101.641 48.3709 100.524 48.3709C99.4079 48.3709 98.3371 47.9283 97.5476 47.1403C96.7581 46.3523 96.3146 45.2836 96.3146 44.1692V43.2507C95.8054 43.7079 95.1743 44.0078 94.4977 44.1143C93.8212 44.2208 93.1282 44.1292 92.5027 43.8506C91.8773 43.572 91.3462 43.1183 90.9737 42.5446C90.6013 41.9709 90.4035 41.3017 90.4044 40.6181L90.2355 30.3372V27.9658C90.2349 27.5863 90.0835 27.2225 89.8143 26.9543C89.5452 26.6861 89.1805 26.5355 88.8002 26.5355C88.4199 26.5355 88.0552 26.6861 87.7861 26.9543C87.5169 27.2225 87.3655 27.5863 87.3649 27.9658V30.3372L87.196 38.9327C87.196 39.8714 86.8224 40.7717 86.1574 41.4354C85.4923 42.0992 84.5904 42.4721 83.6499 42.4721C82.7094 42.4721 81.8074 42.0992 81.1424 41.4354C80.4774 40.7717 80.1038 39.8714 80.1038 38.9327L79.6698 30.3372V25.9433C79.6698 25.3207 79.422 24.7235 78.9808 24.2832C78.5397 23.8429 77.9414 23.5956 77.3175 23.5956C76.6937 23.5956 76.0954 23.8429 75.6542 24.2832C75.2131 24.7235 74.9653 25.3207 74.9653 25.9433V30.3372L74.7001 38.9327C74.7007 39.6688 74.4711 40.3867 74.0434 40.9864C73.6157 41.5861 73.0112 42.0376 72.3142 42.2781C71.6171 42.5185 70.8623 42.5359 70.1549 42.3277C69.4474 42.1196 68.8227 41.6964 68.3678 41.117C67.807 41.8326 66.9913 42.3048 66.0905 42.4354C65.1897 42.566 64.2732 42.3449 63.5315 41.8181V44.1692C63.5315 45.2836 63.088 46.3523 62.2985 47.1403C61.5091 47.9283 60.4383 48.3709 59.3218 48.3709C58.2053 48.3709 57.1345 47.9283 56.345 47.1403C55.5556 46.3523 55.112 45.2836 55.112 44.1692V36.9102C55.1124 37.7199 54.8344 38.5052 54.3246 39.135C53.8148 39.7648 53.1039 40.2011 52.3108 40.3709C51.5176 40.5407 50.69 40.4338 49.9662 40.0681C49.2425 39.7024 48.6663 39.0999 48.3339 38.3614V44.1692C48.3339 45.2836 47.8904 46.3523 47.1009 47.1403C46.3114 47.9283 45.2406 48.3709 44.1241 48.3709C43.0076 48.3709 41.9368 47.9283 41.1474 47.1403C40.3579 46.3523 39.9144 45.2836 39.9144 44.1692V30.3372H39.8907V44.1692C39.8907 45.2836 39.4472 46.3523 38.6577 47.1403C37.8682 47.9283 36.7974 48.3709 35.681 48.3709C34.5645 48.3709 33.4937 47.9283 32.7042 47.1403C31.9147 46.3523 31.4712 45.2836 31.4712 44.1692V38.4102C31.1297 39.1395 30.5491 39.7307 29.8254 40.0861C29.1017 40.4415 28.2782 40.54 27.4909 40.3651C26.7036 40.1903 25.9997 39.7526 25.4952 39.1245C24.9908 38.4963 24.7162 37.7152 24.7167 36.9102V30.3372H24.3553V42.1468C24.3553 43.2611 23.9118 44.3298 23.1223 45.1178C22.3328 45.9058 21.2621 46.3485 20.1456 46.3485C19.0291 46.3485 17.9583 45.9058 17.1688 45.1178C16.3793 44.3298 15.9358 43.2611 15.9358 42.1468V36.9102C15.9363 37.3753 15.8449 37.8359 15.6669 38.2658C15.4889 38.6956 15.2277 39.0862 14.8984 39.4152C14.5691 39.7442 14.178 40.0052 13.7475 40.1833C13.3171 40.3614 12.8557 40.4531 12.3897 40.4531C11.9237 40.4531 11.4623 40.3614 11.0318 40.1833C10.6014 40.0052 10.2103 39.7442 9.88094 39.4152C9.55161 39.0862 9.29048 38.6956 9.11247 38.2658C8.93447 37.8359 8.84309 37.3753 8.84355 36.9102V29.1186C14.0443 20.1132 21.5679 12.6633 30.6315 7.54393C39.695 2.42457 49.9675 -0.177196 60.38 0.009322C70.7926 0.19584 80.9649 3.16382 89.8386 8.6045C98.7123 14.0452 105.963 21.7597 110.837 30.9456Z" fill="#E6E6E6"/>
<path opacity="0.2" d="M35.681 46.3485C35.1281 46.3485 34.5807 46.2399 34.0699 46.0287C33.5591 45.8176 33.0951 45.5081 32.7041 45.1179C32.3132 44.7277 32.0031 44.2645 31.7916 43.7547C31.58 43.2449 31.4712 42.6986 31.4712 42.1468V44.3378C31.4712 45.4522 31.9147 46.5209 32.7042 47.3089C33.4937 48.0968 34.5645 48.5395 35.681 48.5395C36.7975 48.5395 37.8682 48.0968 38.6577 47.3089C39.4472 46.5209 39.8907 45.4522 39.8907 44.3378V42.1468C39.8908 42.6986 39.7819 43.245 39.5704 43.7548C39.3588 44.2645 39.0487 44.7278 38.6578 45.1179C38.2669 45.5081 37.8028 45.8176 37.292 46.0287C36.7813 46.2399 36.2338 46.3485 35.681 46.3485Z" fill="black"/>
<path opacity="0.2" d="M44.1241 46.3485C43.5713 46.3485 43.0238 46.2399 42.5131 46.0287C42.0023 45.8176 41.5382 45.5081 41.1473 45.1179C40.7564 44.7277 40.4463 44.2645 40.2347 43.7547C40.0232 43.2449 39.9143 42.6986 39.9144 42.1468V44.3378C39.9144 45.4522 40.3579 46.5209 41.1474 47.3089C41.9369 48.0968 43.0076 48.5395 44.1241 48.5395C45.2406 48.5395 46.3114 48.0968 47.1009 47.3089C47.8904 46.5209 48.3339 45.4522 48.3339 44.3378V42.1468C48.3339 42.6986 48.2251 43.245 48.0135 43.7548C47.802 44.2645 47.4919 44.7278 47.101 45.1179C46.71 45.5081 46.2459 45.8176 45.7352 46.0287C45.2244 46.2399 44.677 46.3485 44.1241 46.3485Z" fill="black"/>
<path opacity="0.2" d="M31.4712 36.3878C31.1297 37.117 30.5491 37.7082 29.8254 38.0636C29.1018 38.4191 28.2783 38.5175 27.491 38.3427C26.7037 38.1678 25.9997 37.7302 25.4953 37.102C24.9909 36.4739 24.7162 35.6928 24.7167 34.8878V37.0788C24.7162 37.8838 24.9909 38.6649 25.4953 39.293C25.9997 39.9212 26.7037 40.3589 27.491 40.5337C28.2783 40.7085 29.1018 40.6101 29.8254 40.2547C30.5491 39.8992 31.1297 39.3081 31.4712 38.5788V36.3878Z" fill="black"/>
<path opacity="0.2" d="M39.9144 28.3147H39.8907V30.5057H39.9144V28.3147Z" fill="black"/>
<path opacity="0.2" d="M15.9358 34.8878C15.9349 35.8258 15.5609 36.7252 14.8959 37.3882C14.231 38.0512 13.3296 38.4236 12.3897 38.4236C11.4498 38.4236 10.5484 38.0512 9.88346 37.3882C9.21853 36.7252 8.84451 35.8258 8.84358 34.8878V37.0788C8.84451 38.0169 9.21853 38.9162 9.88346 39.5792C10.5484 40.2422 11.4498 40.6146 12.3897 40.6146C13.3296 40.6146 14.231 40.2422 14.8959 39.5792C15.5609 38.9162 15.9349 38.0169 15.9358 37.0788V34.8878Z" fill="black"/>
<path opacity="0.2" d="M24.7167 28.3147H24.3553V30.5057H24.7167V28.3147Z" fill="black"/>
<path opacity="0.2" d="M20.1456 44.326C19.5927 44.326 19.0453 44.2174 18.5345 44.0062C18.0238 43.7951 17.5597 43.4856 17.1687 43.0954C16.7778 42.7053 16.4677 42.2421 16.2562 41.7323C16.0446 41.2225 15.9358 40.6761 15.9358 40.1243V42.3153C15.9358 43.4297 16.3794 44.4984 17.1688 45.2864C17.9583 46.0743 19.0291 46.517 20.1456 46.517C21.2621 46.517 22.3329 46.0743 23.1223 45.2864C23.9118 44.4984 24.3554 43.4297 24.3554 42.3153V40.1243C24.3554 40.6761 24.2465 41.2225 24.035 41.7323C23.8234 42.2421 23.5134 42.7053 23.1224 43.0954C22.7315 43.4856 22.2674 43.7951 21.7566 44.0062C21.2459 44.2174 20.6984 44.326 20.1456 44.326Z" fill="black"/>
<path opacity="0.2" d="M59.3218 46.3485C58.7689 46.3485 58.2215 46.2399 57.7107 46.0287C57.2 45.8176 56.7359 45.5081 56.3449 45.1179C55.954 44.7277 55.6439 44.2645 55.4324 43.7547C55.2208 43.2449 55.112 42.6986 55.112 42.1468V44.3378C55.112 45.4522 55.5556 46.5209 56.345 47.3089C57.1345 48.0968 58.2053 48.5395 59.3218 48.5395C60.4383 48.5395 61.5091 48.0968 62.2985 47.3089C63.088 46.5209 63.5316 45.4522 63.5316 44.3378V42.1468C63.5316 42.6986 63.4227 43.245 63.2112 43.7548C62.9996 44.2645 62.6895 44.7278 62.2986 45.1179C61.9077 45.5081 61.4436 45.8176 60.9328 46.0287C60.4221 46.2399 59.8746 46.3485 59.3218 46.3485Z" fill="black"/>
<path opacity="0.2" d="M90.2355 25.9433C90.2355 25.5634 90.0843 25.199 89.8151 24.9304C89.546 24.6617 89.1809 24.5108 88.8002 24.5108C88.4195 24.5108 88.0544 24.6617 87.7853 24.9304C87.5161 25.199 87.3649 25.5634 87.3649 25.9433V28.1344C87.3646 27.9461 87.4015 27.7595 87.4735 27.5855C87.5455 27.4114 87.6512 27.2532 87.7845 27.1199C87.9178 26.9867 88.0761 26.8809 88.2504 26.8088C88.4247 26.7367 88.6115 26.6995 88.8002 26.6995C88.9889 26.6995 89.1757 26.7367 89.35 26.8088C89.5243 26.8809 89.6826 26.9867 89.8159 27.1199C89.9492 27.2532 90.0549 27.4114 90.1269 27.5855C90.1989 27.7595 90.2358 27.9461 90.2355 28.1344V25.9433Z" fill="black"/>
<path opacity="0.2" d="M55.112 34.8878C55.1124 35.6974 54.8344 36.4827 54.3246 37.1126C53.8148 37.7424 53.104 38.1786 52.3108 38.3484C51.5176 38.5182 50.69 38.4114 49.9662 38.0456C49.2425 37.6799 48.6663 37.0775 48.3339 36.3389V38.5299C48.6663 39.2685 49.2425 39.8709 49.9662 40.2367C50.69 40.6024 51.5176 40.7092 52.3108 40.5394C53.104 40.3696 53.8148 39.9334 54.3246 39.3036C54.8344 38.6738 55.1124 37.8885 55.112 37.0788V34.8878Z" fill="black"/>
<path opacity="0.2" d="M83.6499 40.4496C83.1842 40.4496 82.723 40.3581 82.2928 40.1803C81.8625 40.0024 81.4716 39.7417 81.1423 39.4131C80.813 39.0844 80.5518 38.6942 80.3736 38.2648C80.1954 37.8353 80.1037 37.375 80.1038 36.9102L79.6698 28.3147V30.5057L80.1038 39.1013C80.1038 40.04 80.4774 40.9402 81.1424 41.604C81.8074 42.2677 82.7094 42.6406 83.6499 42.6406C84.5904 42.6406 85.4923 42.2677 86.1574 41.604C86.8224 40.9402 87.196 40.04 87.196 39.1013L87.3649 30.5057V28.3147L87.196 36.9103C87.1961 37.3751 87.1044 37.8353 86.9262 38.2648C86.748 38.6942 86.4868 39.0844 86.1575 39.4131C85.8282 39.7417 85.4373 40.0024 85.007 40.1803C84.5767 40.3581 84.1156 40.4496 83.6499 40.4496Z" fill="black"/>
<path opacity="0.2" d="M107.291 42.135C106.813 42.1351 106.34 42.0386 105.9 41.8512C105.461 41.6637 105.064 41.3893 104.734 41.0445V42.1468C104.734 43.2611 104.291 44.3298 103.501 45.1178C102.712 45.9058 101.641 46.3485 100.524 46.3485C99.4079 46.3485 98.3371 45.9058 97.5476 45.1178C96.7581 44.3298 96.3146 43.2611 96.3146 42.1468V41.2282C95.8054 41.6854 95.1743 41.9854 94.4977 42.0918C93.8211 42.1983 93.1282 42.1067 92.5027 41.8281C91.8772 41.5495 91.3461 41.0959 90.9737 40.5221C90.6013 39.9484 90.4035 39.2793 90.4044 38.5957L90.2355 28.3147V30.5057L90.4044 40.7867C90.4036 41.4703 90.6013 42.1395 90.9737 42.7132C91.3461 43.2869 91.8772 43.7405 92.5027 44.0191C93.1282 44.2977 93.8211 44.3893 94.4977 44.2829C95.1743 44.1764 95.8054 43.8764 96.3146 43.4193V44.3378C96.3146 45.4522 96.7581 46.5209 97.5476 47.3089C98.3371 48.0968 99.4079 48.5395 100.524 48.5395C101.641 48.5395 102.712 48.0968 103.501 47.3089C104.291 46.5209 104.734 45.4522 104.734 44.3378V43.2355C105.224 43.7456 105.855 44.0977 106.546 44.2466C107.238 44.3954 107.959 44.3342 108.615 44.0707C109.272 43.8073 109.834 43.3537 110.23 42.7684C110.626 42.1831 110.837 41.4929 110.837 40.7867V38.5956C110.837 39.0604 110.745 39.5207 110.567 39.9502C110.389 40.3796 110.128 40.7698 109.798 41.0984C109.469 41.4271 109.078 41.6878 108.648 41.8657C108.218 42.0435 107.756 42.135 107.291 42.135Z" fill="black"/>
<path opacity="0.2" d="M71.154 40.4496C70.617 40.4496 70.0871 40.3276 69.6043 40.0928C69.1216 39.858 68.6987 39.5166 68.3678 39.0945C67.807 39.8101 66.9913 40.2823 66.0905 40.4129C65.1897 40.5435 64.2732 40.3224 63.5316 39.7956V41.9867C64.2732 42.5134 65.1897 42.7345 66.0905 42.6039C66.9913 42.4733 67.807 42.0011 68.3678 41.2855C68.8227 41.8649 69.4474 42.2882 70.1548 42.4963C70.8623 42.7044 71.6171 42.6871 72.3142 42.4466C73.0112 42.2062 73.6157 41.7546 74.0434 41.155C74.4711 40.5553 74.7007 39.8374 74.7001 39.1013L74.9653 30.5057V28.3147L74.7001 36.9102C74.7002 37.375 74.6085 37.8353 74.4303 38.2648C74.2521 38.6942 73.9909 39.0844 73.6616 39.413C73.3323 39.7417 72.9414 40.0024 72.5111 40.1803C72.0809 40.3581 71.6197 40.4496 71.154 40.4496Z" fill="black"/>
<path opacity="0.2" d="M79.6698 23.9209C79.6698 23.2982 79.4219 22.701 78.9808 22.2608C78.5397 21.8205 77.9414 21.5731 77.3175 21.5731C76.6937 21.5731 76.0954 21.8205 75.6542 22.2608C75.2131 22.701 74.9653 23.2982 74.9653 23.9209V26.1119C74.9653 25.4892 75.2131 24.8921 75.6542 24.4518C76.0954 24.0115 76.6937 23.7641 77.3175 23.7641C77.9414 23.7641 78.5397 24.0115 78.9808 24.4518C79.4219 24.8921 79.6698 25.4892 79.6698 26.1119V23.9209Z" fill="black"/>
<path d="M40.3365 24.354H39.4922V28.9046H40.3365V24.354Z" fill="#3F3D56"/>
<path d="M56.2941 21.9102H55.4498V26.4608H56.2941V21.9102Z" fill="#3F3D56"/>
<path d="M36.0305 39.7754H35.1862V44.326H36.0305V39.7754Z" fill="#3F3D56"/>
<path d="M70.5179 31.8239L69.8236 31.3444L67.2294 35.0866L67.9237 35.5661L70.5179 31.8239Z" fill="#3F3D56"/>
<path d="M25.8083 24.6343L25.2844 25.2951L28.8599 28.1187L29.3838 27.4579L25.8083 24.6343Z" fill="#3F3D56"/>
<path d="M75.454 7.61174L74.9301 8.2726L78.5056 11.0962L79.0295 10.4353L75.454 7.61174Z" fill="#3F3D56"/>
<path d="M16.5208 29.3534L15.9969 30.0142L19.5724 32.8378L20.0963 32.177L16.5208 29.3534Z" fill="#3F3D56"/>
<path d="M43.4605 13.6517H42.6162V18.2023H43.4605V13.6517Z" fill="white"/>
<path d="M20.3263 37.0788H19.482V41.6293H20.3263V37.0788Z" fill="white"/>
<path d="M59.8402 7.07867H58.9959V11.6293H59.8402V7.07867Z" fill="white"/>
<path d="M64.5326 23.0149L63.778 22.637L61.7334 26.7044L62.488 27.0823L64.5326 23.0149Z" fill="white"/>
<path d="M60.6488 39.8689L59.8942 39.491L57.8496 43.5583L58.6042 43.9362L60.6488 39.8689Z" fill="white"/>
<path d="M49.0426 30.6192L48.4825 31.2498L51.894 34.2686L52.4542 33.638L49.0426 30.6192Z" fill="white"/>
<path d="M32.3251 10.9001L31.765 11.5306L35.1766 14.5494L35.7367 13.9189L32.3251 10.9001Z" fill="white"/>
<path d="M87.881 18.4844L87.3209 19.1149L90.7325 22.1338L91.2926 21.5032L87.881 18.4844Z" fill="white"/>
<path d="M67.4487 3.65285L66.8885 4.28342L70.3001 7.30224L70.8603 6.67168L67.4487 3.65285Z" fill="white"/>
<path d="M49.8773 21.9102H49.033V26.4608H49.8773V21.9102Z" fill="#FF6584"/>
<path d="M97.5097 24.7839L96.7325 24.4545L94.9507 28.6433L95.7279 28.9726L97.5097 24.7839Z" fill="#FF6584"/>
<path d="M32.9766 29.2516L32.2455 29.6729L34.5251 33.6138L35.2563 33.1925L32.9766 29.2516Z" fill="#FF6584"/>
<path d="M81.2715 26.0493L80.5403 26.4707L82.8199 30.4116L83.5511 29.9902L81.2715 26.0493Z" fill="#FF6584"/>
<path d="M51.2143 9.36414L50.4831 9.78549L52.7628 13.7264L53.494 13.3051L51.2143 9.36414Z" fill="#FF6584"/>
<path d="M87.0128 8.52116L86.2816 8.9425L88.5613 12.8834L89.2925 12.4621L87.0128 8.52116Z" fill="#FF6584"/>
<path d="M40.5755 4.81327L39.8443 5.23462L42.1239 9.17554L42.8551 8.75419L40.5755 4.81327Z" fill="#FF6584"/>
<path d="M70.9852 12.809H70.1409V17.3596H70.9852V12.809Z" fill="#FF6584"/>
<path d="M22.3526 20.3933H21.5083V24.9439H22.3526V20.3933Z" fill="#FF6584"/>
<path opacity="0.2" d="M76.9542 153.114C73.7637 149.93 71.9403 145.631 71.8701 141.128C71.7998 136.626 73.4881 132.272 76.5776 128.99C76.4405 129.119 76.305 129.249 76.1711 129.383C74.5573 130.992 73.2771 132.903 72.4034 135.006C71.5298 137.11 71.0799 139.364 71.0794 141.641C71.0789 143.918 71.5279 146.173 72.4007 148.276C73.2734 150.38 74.5529 152.291 76.166 153.901C77.779 155.511 79.6941 156.788 81.8018 157.659C83.9094 158.53 86.1684 158.978 88.4496 158.978C90.7308 158.978 92.9896 158.528 95.0969 157.656C97.2042 156.785 99.1187 155.507 100.731 153.896C100.865 153.762 100.996 153.627 101.125 153.49C97.8368 156.574 93.475 158.259 88.9635 158.189C84.4519 158.119 80.1448 156.299 76.9542 153.114Z" fill="black"/>
<path opacity="0.2" d="M95.3167 134.857C93.9656 133.508 92.2438 132.588 90.3692 132.216C88.4947 131.843 86.5515 132.034 84.7854 132.763C83.0194 133.493 81.5099 134.729 80.4478 136.316C79.3858 137.902 78.8189 139.767 78.8189 141.674C78.8189 143.582 79.3858 145.447 80.4478 147.033C81.5099 148.619 83.0194 149.855 84.7854 150.585C86.5515 151.315 88.4947 151.506 90.3692 151.133C92.2438 150.76 93.9656 149.841 95.3167 148.492C97.1244 146.682 98.1396 144.23 98.1396 141.674C98.1396 139.119 97.1244 136.667 95.3167 134.857ZM93.5775 146.428C92.2269 147.775 90.3957 148.532 88.4863 148.532C86.5769 148.532 84.7457 147.775 83.3951 146.428C83.2179 146.251 83.0539 146.065 82.8963 145.875C82.0195 144.796 81.4748 143.486 81.3282 142.105C81.1817 140.723 81.4396 139.329 82.0706 138.091C82.7017 136.853 83.6789 135.824 84.8839 135.128C86.0889 134.433 87.47 134.101 88.86 134.173C90.25 134.245 91.5893 134.718 92.7157 135.534C93.842 136.35 94.7072 137.475 95.2064 138.772C95.7056 140.068 95.8174 141.482 95.5283 142.841C95.2392 144.2 94.5616 145.446 93.5775 146.428Z" fill="black"/>
<path d="M105.437 146.428L103.394 148.467C103.245 148.616 103.055 148.717 102.848 148.757C102.64 148.797 102.426 148.775 102.232 148.692C102.038 148.61 101.873 148.471 101.759 148.294C101.645 148.117 101.586 147.91 101.59 147.7L101.358 147.932C101.122 148.167 100.803 148.299 100.47 148.299C100.137 148.299 99.8182 148.167 99.5829 147.932C99.3475 147.697 99.2153 147.378 99.2153 147.046C99.2153 146.714 99.3475 146.395 99.5829 146.161L99.7769 145.967C99.573 145.956 99.3766 145.887 99.2115 145.767C99.0464 145.647 98.9197 145.482 98.8467 145.291C98.7737 145.101 98.7575 144.894 98.8002 144.695C98.8428 144.495 98.9425 144.313 99.087 144.169L101.223 141.966L101.724 141.466C101.804 141.386 101.849 141.277 101.849 141.164C101.849 141.051 101.804 140.942 101.724 140.862C101.643 140.782 101.534 140.737 101.421 140.737C101.307 140.737 101.199 140.782 101.118 140.862L100.618 141.362L98.7667 143.138C98.5684 143.336 98.2996 143.447 98.0192 143.447C97.7388 143.447 97.47 143.336 97.2717 143.138C97.0735 142.941 96.9621 142.672 96.9621 142.392C96.9621 142.113 97.0735 141.844 97.2717 141.646L98.9956 139.743L99.9235 138.817C100.054 138.686 100.127 138.508 100.127 138.323C100.126 138.138 100.052 137.96 99.9213 137.829C99.7902 137.698 99.6125 137.625 99.4271 137.624C99.2416 137.624 99.0636 137.697 98.9319 137.827L98.0039 138.753L96.1327 140.509C95.2934 140.013 94.3971 139.619 93.4631 139.337C93.3082 139.183 93.2055 138.984 93.1692 138.768L92.6726 139.264C92.4373 139.498 92.1181 139.63 91.7852 139.63C91.4524 139.63 91.1332 139.498 90.8979 139.264C90.6625 139.029 90.5303 138.71 90.5303 138.378C90.5303 138.046 90.6625 137.727 90.8979 137.492L92.4309 135.962C92.26 136.133 92.0356 136.24 91.7951 136.265C91.5546 136.291 91.3126 136.233 91.1096 136.102C90.9065 135.971 90.7547 135.775 90.6793 135.545C90.604 135.316 90.6098 135.068 90.6957 134.842L89.4691 136.066C89.2337 136.301 88.9145 136.433 88.5817 136.433C88.2489 136.433 87.9297 136.301 87.6944 136.066C87.459 135.831 87.3268 135.513 87.3268 135.181C87.3268 134.848 87.459 134.53 87.6944 134.295L90.6156 131.379L90.6106 131.374L87.6894 134.29C87.454 134.525 87.1348 134.657 86.802 134.657C86.4692 134.657 86.15 134.525 85.9146 134.29C85.6793 134.055 85.5471 133.736 85.5471 133.404C85.5471 133.072 85.6793 132.753 85.9146 132.519L87.1309 131.305C86.9049 131.386 86.6577 131.389 86.4301 131.312C86.2024 131.234 86.0081 131.082 85.879 130.879C85.75 130.677 85.6941 130.436 85.7204 130.198C85.7467 129.959 85.8538 129.737 86.0239 129.567L87.4121 128.182L87.3359 128.106L84.8418 130.595C84.6065 130.83 84.2873 130.962 83.9545 130.962C83.6216 130.962 83.3024 130.83 83.0671 130.595C82.8318 130.36 82.6995 130.042 82.6995 129.709C82.6995 129.377 82.8318 129.059 83.0671 128.824L84.173 127.72C83.9748 127.918 83.7059 128.029 83.4255 128.029C83.1452 128.029 82.8763 127.918 82.6781 127.72C82.4798 127.522 82.3684 127.254 82.3684 126.974C82.3684 126.694 82.4798 126.426 82.6781 126.228L84.3236 124.586C87.3217 123.781 90.4809 123.794 93.4726 124.622C96.4643 125.449 99.179 127.062 101.334 129.292C103.49 131.522 105.007 134.288 105.729 137.302C106.45 140.315 106.349 143.467 105.437 146.428Z" fill="#E6E6E6"/>
<path opacity="0.2" d="M86.3418 133.864C86.2252 133.747 86.1328 133.609 86.0697 133.457C86.0066 133.305 85.9742 133.142 85.9742 132.978C85.9742 132.813 86.0066 132.651 86.0697 132.499C86.1328 132.347 86.2252 132.209 86.3418 132.092L85.8791 132.554C85.6437 132.789 85.5115 133.108 85.5115 133.44C85.5115 133.772 85.6437 134.091 85.8791 134.325C86.1144 134.56 86.4336 134.692 86.7664 134.692C87.0993 134.692 87.4185 134.56 87.6538 134.325L88.1165 133.864C88 133.98 87.8617 134.072 87.7094 134.135C87.5572 134.198 87.394 134.23 87.2292 134.23C87.0644 134.23 86.9012 134.198 86.7489 134.135C86.5967 134.072 86.4583 133.98 86.3418 133.864Z" fill="black"/>
<path opacity="0.2" d="M88.1215 135.64C88.0049 135.524 87.9125 135.385 87.8494 135.234C87.7864 135.082 87.7539 134.919 87.7539 134.754C87.7539 134.59 87.7864 134.427 87.8494 134.275C87.9125 134.123 88.0049 133.985 88.1215 133.869L87.6588 134.33C87.5422 134.447 87.4498 134.585 87.3867 134.737C87.3237 134.889 87.2912 135.052 87.2912 135.216C87.2912 135.381 87.3237 135.543 87.3867 135.695C87.4498 135.847 87.5422 135.985 87.6588 136.102C87.7753 136.218 87.9136 136.31 88.0659 136.373C88.2181 136.436 88.3813 136.469 88.5461 136.469C88.7109 136.469 88.8741 136.436 89.0264 136.373C89.1786 136.31 89.317 136.218 89.4335 136.102L89.8962 135.64C89.7797 135.756 89.6414 135.848 89.4891 135.911C89.3369 135.974 89.1737 136.007 89.0089 136.007C88.8441 136.007 88.6809 135.974 88.5286 135.911C88.3764 135.848 88.238 135.756 88.1215 135.64Z" fill="black"/>
<path opacity="0.2" d="M87.558 130.878C87.332 130.96 87.0848 130.963 86.8572 130.885C86.6295 130.808 86.4352 130.655 86.3061 130.453C86.1771 130.251 86.1212 130.01 86.1475 129.772C86.1738 129.533 86.2809 129.311 86.451 129.141L85.9883 129.603C85.8182 129.772 85.7111 129.995 85.6848 130.233C85.6584 130.472 85.7144 130.712 85.8434 130.915C85.9725 131.117 86.1668 131.27 86.3944 131.347C86.622 131.424 86.8693 131.422 87.0953 131.34L87.558 130.878Z" fill="black"/>
<path opacity="0.2" d="M91.0377 130.948L90.575 131.41L90.58 131.415L91.0427 130.953L91.0377 130.948Z" fill="black"/>
<path opacity="0.2" d="M84.6001 127.294C84.502 127.392 84.3855 127.469 84.2572 127.522C84.1289 127.575 83.9915 127.603 83.8527 127.603C83.7139 127.603 83.5764 127.575 83.4481 127.522C83.3199 127.469 83.2034 127.392 83.1052 127.294C83.007 127.196 82.9292 127.079 82.876 126.951C82.8229 126.823 82.7956 126.686 82.7956 126.548C82.7956 126.409 82.8229 126.272 82.876 126.144C82.9292 126.016 83.007 125.9 83.1052 125.802L82.6425 126.263C82.4442 126.461 82.3329 126.73 82.3329 127.01C82.3329 127.289 82.4442 127.558 82.6425 127.756C82.8407 127.953 83.1096 128.065 83.3899 128.065C83.6703 128.065 83.9392 127.953 84.1374 127.756L84.6001 127.294Z" fill="black"/>
<path opacity="0.2" d="M87.7631 127.68L87.3003 128.141L87.3765 128.217L87.8392 127.756L87.7631 127.68Z" fill="black"/>
<path opacity="0.2" d="M83.4942 130.169C83.3777 130.053 83.2853 129.914 83.2222 129.763C83.1591 129.611 83.1266 129.448 83.1266 129.283C83.1266 129.119 83.1591 128.956 83.2222 128.804C83.2853 128.652 83.3777 128.514 83.4942 128.398L83.0315 128.859C82.915 128.976 82.8226 129.114 82.7595 129.266C82.6964 129.418 82.664 129.581 82.664 129.745C82.664 129.91 82.6964 130.072 82.7595 130.224C82.8226 130.376 82.915 130.514 83.0315 130.631C83.148 130.747 83.2864 130.839 83.4386 130.902C83.5909 130.965 83.7541 130.998 83.9189 130.998C84.0837 130.998 84.2469 130.965 84.3991 130.902C84.5514 130.839 84.6897 130.747 84.8062 130.631L85.269 130.169C85.1524 130.285 85.0141 130.377 84.8618 130.44C84.7096 130.503 84.5464 130.536 84.3816 130.536C84.2168 130.536 84.0536 130.503 83.9014 130.44C83.7491 130.377 83.6108 130.285 83.4942 130.169Z" fill="black"/>
<path opacity="0.2" d="M91.325 138.837C91.2084 138.721 91.116 138.583 91.0529 138.431C90.9899 138.279 90.9574 138.116 90.9574 137.952C90.9574 137.787 90.9899 137.624 91.0529 137.472C91.116 137.32 91.2084 137.182 91.325 137.066L90.8623 137.528C90.7458 137.644 90.6533 137.782 90.5902 137.934C90.5272 138.086 90.4947 138.249 90.4947 138.413C90.4947 138.578 90.5272 138.741 90.5902 138.893C90.6533 139.045 90.7458 139.183 90.8623 139.299C90.9788 139.415 91.1172 139.508 91.2694 139.571C91.4217 139.634 91.5848 139.666 91.7496 139.666C91.9144 139.666 92.0776 139.634 92.2299 139.571C92.3821 139.508 92.5205 139.415 92.637 139.299L93.0997 138.837C92.9832 138.954 92.8449 139.046 92.6926 139.109C92.5404 139.172 92.3772 139.204 92.2124 139.204C92.0476 139.204 91.8844 139.172 91.7321 139.109C91.5799 139.046 91.4415 138.954 91.325 138.837Z" fill="black"/>
<path opacity="0.2" d="M102.151 141.04C102.231 140.96 102.276 140.851 102.276 140.738C102.276 140.625 102.231 140.516 102.151 140.436C102.07 140.356 101.962 140.311 101.848 140.311C101.735 140.311 101.626 140.356 101.546 140.436L101.083 140.898C101.163 140.818 101.272 140.773 101.385 140.773C101.499 140.773 101.608 140.818 101.688 140.898C101.768 140.978 101.813 141.086 101.813 141.2C101.813 141.313 101.768 141.422 101.688 141.502L102.151 141.04Z" fill="black"/>
<path opacity="0.2" d="M92.858 135.536C92.6871 135.707 92.4626 135.814 92.2222 135.839C91.9817 135.865 91.7397 135.807 91.5367 135.676C91.3336 135.545 91.1817 135.348 91.1064 135.119C91.0311 134.889 91.0369 134.641 91.1228 134.416L90.6601 134.878C90.5741 135.103 90.5684 135.351 90.6437 135.581C90.719 135.81 90.8709 136.007 91.0739 136.138C91.277 136.269 91.519 136.326 91.7594 136.301C91.9999 136.275 92.2244 136.168 92.3953 135.998L92.858 135.536Z" fill="black"/>
<path opacity="0.2" d="M97.6989 142.712C97.6007 142.614 97.5228 142.498 97.4697 142.37C97.4165 142.242 97.3892 142.105 97.3892 141.966C97.3892 141.827 97.4165 141.69 97.4697 141.562C97.5228 141.434 97.6007 141.318 97.6989 141.22L99.4227 139.317L98.96 139.779L97.2361 141.682C97.138 141.78 97.0601 141.896 97.007 142.024C96.9539 142.152 96.9265 142.289 96.9265 142.428C96.9265 142.566 96.9539 142.704 97.007 142.832C97.0601 142.96 97.138 143.076 97.2361 143.174C97.3343 143.272 97.4508 143.35 97.5791 143.403C97.7073 143.456 97.8448 143.483 97.9836 143.483C98.1224 143.483 98.2599 143.456 98.3881 143.403C98.5164 143.35 98.6329 143.272 98.7311 143.174L100.582 141.398L101.045 140.936L99.1938 142.712C99.0957 142.81 98.9791 142.888 98.8509 142.941C98.7226 142.994 98.5852 143.021 98.4463 143.021C98.3075 143.021 98.17 142.994 98.0418 142.941C97.9135 142.888 97.797 142.81 97.6989 142.712Z" fill="black"/>
<path opacity="0.2" d="M102.326 148.041C102.225 147.941 102.146 147.821 102.093 147.689C102.04 147.557 102.014 147.415 102.018 147.273L101.785 147.506C101.668 147.622 101.53 147.714 101.378 147.777C101.225 147.84 101.062 147.872 100.897 147.872C100.733 147.872 100.569 147.84 100.417 147.777C100.265 147.714 100.127 147.622 100.01 147.506C99.8935 147.389 99.801 147.251 99.738 147.099C99.6749 146.947 99.6424 146.784 99.6424 146.62C99.6424 146.455 99.6749 146.293 99.738 146.141C99.801 145.989 99.8935 145.851 100.01 145.734L100.204 145.541C100 145.53 99.8037 145.46 99.6386 145.34C99.4735 145.221 99.3468 145.055 99.2738 144.865C99.2008 144.675 99.1846 144.467 99.2273 144.268C99.27 144.069 99.3696 143.886 99.5142 143.742L101.65 141.54L101.187 142.002L99.0514 144.204C98.9069 144.348 98.8072 144.531 98.7646 144.73C98.7219 144.929 98.7381 145.137 98.8111 145.327C98.8841 145.517 99.0108 145.682 99.1759 145.802C99.341 145.922 99.5374 145.992 99.7412 146.003L99.5473 146.196C99.3119 146.431 99.1797 146.75 99.1797 147.082C99.1797 147.414 99.3119 147.733 99.5473 147.967C99.7826 148.202 100.102 148.334 100.435 148.334C100.767 148.334 101.087 148.202 101.322 147.967L101.555 147.735C101.55 147.946 101.609 148.153 101.723 148.33C101.838 148.506 102.002 148.645 102.196 148.728C102.39 148.81 102.605 148.833 102.812 148.793C103.019 148.753 103.209 148.652 103.358 148.503L103.821 148.041C103.723 148.139 103.606 148.217 103.478 148.27C103.35 148.323 103.212 148.35 103.074 148.35C102.935 148.35 102.797 148.323 102.669 148.27C102.541 148.217 102.424 148.139 102.326 148.041Z" fill="black"/>
<path opacity="0.2" d="M95.0649 140.083C95.0843 139.925 95.0672 139.764 95.0151 139.613C94.9629 139.462 94.877 139.324 94.7638 139.211C94.6506 139.098 94.5131 139.013 94.3617 138.961C94.2104 138.908 94.0492 138.891 93.8903 138.911C93.7354 138.756 93.6326 138.557 93.5963 138.342L93.1335 138.804C93.5252 138.913 93.8747 139.138 94.1366 139.448C94.3985 139.759 94.5608 140.141 94.6022 140.545C94.7003 140.643 94.8169 140.721 94.9451 140.774C95.0734 140.827 95.2108 140.854 95.3497 140.854C95.4885 140.854 95.6259 140.827 95.7542 140.774C95.8824 140.721 95.999 140.643 96.0971 140.545L97.9683 138.789L98.4311 138.327L96.5599 140.083C96.4617 140.181 96.3452 140.259 96.2169 140.312C96.0887 140.365 95.9512 140.392 95.8124 140.392C95.6735 140.392 95.5361 140.365 95.4078 140.312C95.2796 140.259 95.163 140.181 95.0649 140.083Z" fill="black"/>
<path opacity="0.2" d="M100.351 138.391C100.416 138.326 100.468 138.249 100.504 138.164C100.539 138.079 100.558 137.987 100.558 137.895C100.558 137.803 100.54 137.712 100.505 137.627C100.47 137.541 100.418 137.464 100.353 137.399C100.287 137.334 100.21 137.282 100.124 137.247C100.039 137.212 99.9477 137.194 99.8554 137.194C99.7631 137.194 99.6717 137.213 99.5865 137.248C99.5013 137.284 99.424 137.336 99.359 137.401L98.8962 137.863C98.9613 137.797 99.0386 137.745 99.1238 137.71C99.209 137.674 99.3003 137.656 99.3927 137.656C99.485 137.656 99.5764 137.674 99.6618 137.709C99.7471 137.744 99.8246 137.796 99.8899 137.861C99.9552 137.926 100.007 138.003 100.042 138.088C100.077 138.174 100.095 138.265 100.095 138.357C100.095 138.449 100.077 138.54 100.041 138.625C100.006 138.71 99.9534 138.788 99.8879 138.853L100.351 138.391Z" fill="black"/>
<path d="M91.9682 130.207L91.7902 130.029L90.8292 130.988L91.0071 131.166L91.9682 130.207Z" fill="#3F3D56"/>
<path d="M95.848 133.049L95.67 132.871L94.7089 133.831L94.8869 134.008L95.848 133.049Z" fill="#3F3D56"/>
<path d="M99.6888 130.958L99.5109 130.78L98.5498 131.74L98.7278 131.917L99.6888 130.958Z" fill="#3F3D56"/>
<path d="M87.8036 132.552L87.6257 132.374L86.6646 133.333L86.8426 133.511L87.8036 132.552Z" fill="#3F3D56"/>
<path d="M96.7526 138.131L96.7075 137.884L95.3704 138.127L95.4155 138.374L96.7526 138.131Z" fill="#3F3D56"/>
<path d="M102.339 135.692L102.294 135.445L100.957 135.688L101.002 135.935L102.339 135.692Z" fill="#3F3D56"/>
<path d="M88.8466 127.209L88.5966 127.239L88.754 128.586L89.0039 128.557L88.8466 127.209Z" fill="#3F3D56"/>
<path d="M85.8923 126.25L85.6423 126.279L85.7996 127.627L86.0496 127.598L85.8923 126.25Z" fill="#3F3D56"/>
<path d="M94.8869 128.608L94.7089 128.431L93.7479 129.39L93.9258 129.567L94.8869 128.608Z" fill="white"/>
<path d="M102.219 133.487L102.041 133.31L101.08 134.269L101.258 134.446L102.219 133.487Z" fill="white"/>
<path d="M105.013 140.457L104.835 140.28L103.874 141.239L104.052 141.416L105.013 140.457Z" fill="white"/>
<path d="M85.0629 128.679L84.8849 128.502L83.9238 129.461L84.1018 129.638L85.0629 128.679Z" fill="white"/>
<path d="M97.3512 135.015L97.2719 134.777L95.982 135.204L96.0612 135.442L97.3512 135.015Z" fill="white"/>
<path d="M92.9732 137.751L92.8939 137.512L91.6039 137.939L91.6832 138.178L92.9732 137.751Z" fill="white"/>
<path d="M92.4801 133.359L92.2289 133.374L92.3105 134.728L92.5617 134.713L92.4801 133.359Z" fill="white"/>
<path d="M93.1208 125.685L92.8696 125.701L92.9512 127.055L93.2024 127.04L93.1208 125.685Z" fill="white"/>
<path d="M94.4953 131.699L94.3174 131.521L93.3563 132.481L93.5343 132.658L94.4953 131.699Z" fill="#FF6584"/>
<path d="M102.875 143.548L102.697 143.37L101.736 144.33L101.914 144.507L102.875 143.548Z" fill="#FF6584"/>
<path d="M104.272 137.623L104.094 137.446L103.133 138.405L103.311 138.583L104.272 137.623Z" fill="#FF6584"/>
<path d="M89.3825 129.691L89.1393 129.626L88.7876 130.936L89.0307 131.001L89.3825 129.691Z" fill="#FF6584"/>
<path d="M97.4268 129.336L97.1837 129.271L96.8319 130.581L97.075 130.646L97.4268 129.336Z" fill="#FF6584"/>
<path d="M96.1454 126.138L95.9023 126.073L95.5505 127.383L95.7936 127.448L96.1454 126.138Z" fill="#FF6584"/>
<path d="M89.0139 125.588L88.8359 125.411L87.8748 126.37L88.0528 126.548L89.0139 125.588Z" fill="#FF6584"/>
<path d="M270.739 72.1153C270.739 71.3759 270.445 70.6667 269.921 70.1439C269.397 69.621 268.686 69.3273 267.946 69.3273C267.205 69.3273 266.494 69.621 265.97 70.1439C265.447 70.6667 265.152 71.3759 265.152 72.1153V197.104C265.152 197.844 265.447 198.553 265.97 199.076C266.494 199.598 267.205 199.892 267.946 199.892C268.686 199.892 269.397 199.598 269.921 199.076C270.445 198.553 270.739 197.844 270.739 197.104V72.925" fill="#3F3D56"/>
<path d="M306.372 78.7485C301.464 69.5113 293.278 62.4363 283.416 58.9101C273.554 55.3839 262.728 55.6607 253.061 59.6863C243.393 63.7119 235.58 71.196 231.153 80.6719C226.725 90.1478 226.004 100.932 229.129 110.912H234.342C235.389 110.912 236.248 112.076 236.248 113.501H237.205C238.256 113.501 239.115 114.665 239.115 116.09C239.115 117.512 238.256 118.68 237.205 118.68H236.248C236.246 118.896 236.224 119.112 236.182 119.324H240.546C241.597 119.324 242.456 120.492 242.456 121.914C242.456 123.339 241.597 124.503 240.546 124.503H236.377C242.904 132.668 252.247 138.108 262.58 139.759C272.913 141.41 283.491 139.154 292.245 133.432C301 127.709 307.299 118.932 309.912 108.819C312.525 98.705 311.262 87.9822 306.372 78.7485H306.372ZM277.789 113.508C275.177 114.98 272.227 115.751 269.227 115.745C268.627 115.745 268.026 115.715 267.429 115.655C263.299 115.224 259.46 113.334 256.603 110.326C253.747 107.317 252.063 103.389 251.854 99.2498C251.645 95.1106 252.926 91.0333 255.465 87.754C258.004 84.4746 261.634 82.2092 265.7 81.3667C269.765 80.5242 273.999 81.1602 277.636 83.1597C281.273 85.1593 284.074 88.3908 285.533 92.2708C286.993 96.1508 287.014 100.424 285.594 104.318C284.174 108.213 281.405 111.472 277.789 113.508Z" fill="#81ECEC"/>
<path opacity="0.2" d="M242.342 121.043C242.418 120.759 242.456 120.466 242.456 120.172C242.456 118.748 241.597 117.583 240.547 117.583H238.76C238.626 117.89 238.411 118.155 238.136 118.348C237.862 118.542 237.54 118.656 237.205 118.678H236.25C236.248 118.896 236.225 119.112 236.181 119.325H240.547C241.371 119.325 242.076 120.045 242.342 121.043Z" fill="black"/>
<path opacity="0.2" d="M237.204 113.5C238.029 113.5 238.734 114.22 239 115.218C239.076 114.934 239.114 114.641 239.114 114.347C239.114 112.923 238.255 111.758 237.204 111.758H236.25C236.25 110.334 235.39 109.169 234.34 109.169H229.128C227.94 105.368 227.301 101.416 227.23 97.4345C227.223 97.7445 227.215 98.054 227.215 98.3656C227.211 102.62 227.856 106.851 229.128 110.912H234.34C235.39 110.912 236.25 112.077 236.25 113.5H237.204Z" fill="black"/>
<path opacity="0.2" d="M269.229 138.557C263.3 138.563 257.437 137.314 252.028 134.891C246.618 132.469 241.786 128.928 237.849 124.503H236.376C241.806 131.303 249.22 136.25 257.592 138.658C265.963 141.067 274.877 140.819 283.101 137.948C291.325 135.077 298.451 129.725 303.493 122.633C308.534 115.542 311.243 107.061 311.243 98.3656C311.243 98.1035 311.235 97.843 311.23 97.582C310.98 108.534 306.444 118.954 298.595 126.612C290.745 134.269 280.205 138.557 269.229 138.557Z" fill="black"/>
<path opacity="0.2" d="M269.227 77.5008C265.093 77.5015 261.051 78.7258 257.614 81.0189C254.177 83.312 251.498 86.5708 249.916 90.3834C248.334 94.196 247.921 98.3911 248.728 102.438C249.535 106.485 251.526 110.203 254.45 113.12C257.374 116.038 261.099 118.025 265.154 118.83C269.209 119.635 273.412 119.221 277.231 117.642C281.051 116.062 284.316 113.388 286.613 109.957C288.909 106.526 290.135 102.492 290.135 98.3656C290.129 92.8333 287.924 87.5296 284.004 83.618C280.084 79.7064 274.77 77.5064 269.227 77.5008ZM277.789 113.508C275.177 114.98 272.227 115.751 269.227 115.745C268.627 115.745 268.026 115.715 267.429 115.655C263.299 115.224 259.46 113.334 256.603 110.326C253.747 107.317 252.063 103.389 251.854 99.2498C251.645 95.1106 252.926 91.0333 255.465 87.7539C258.004 84.4746 261.634 82.2092 265.7 81.3667C269.765 80.5242 273.999 81.1602 277.636 83.1597C281.273 85.1593 284.074 88.3908 285.533 92.2708C286.993 96.1508 287.014 100.424 285.594 104.318C284.174 108.213 281.405 111.472 277.789 113.508Z" fill="black"/>
<path d="M306.371 78.0522V85.0277C306.372 85.5371 306.219 86.0348 305.934 86.4569C305.648 86.879 305.243 87.2061 304.769 87.3961C304.296 87.5861 303.776 87.6303 303.277 87.5229C302.778 87.4156 302.323 87.1616 301.97 86.7938V87.5888C301.97 88.3924 301.65 89.1631 301.081 89.7314C300.512 90.2997 299.739 90.6189 298.934 90.6189C298.129 90.6189 297.357 90.2997 296.788 89.7314C296.218 89.1631 295.898 88.3924 295.898 87.5888V86.9263C295.531 87.256 295.076 87.4724 294.588 87.5492C294.1 87.6259 293.6 87.5599 293.149 87.359C292.698 87.158 292.315 86.8309 292.047 86.4171C291.778 86.0034 291.635 85.5208 291.636 85.0278L291.514 77.6134V75.9032C291.514 75.6292 291.405 75.3664 291.211 75.1727C291.017 74.9789 290.754 74.8701 290.479 74.8701C290.205 74.8701 289.941 74.9789 289.747 75.1727C289.553 75.3664 289.444 75.6292 289.444 75.9032V77.6134L289.322 83.8123C289.322 84.4892 289.053 85.1385 288.573 85.6171C288.094 86.0958 287.443 86.3648 286.765 86.3648C286.087 86.3648 285.436 86.0958 284.957 85.6171C284.477 85.1385 284.207 84.4892 284.207 83.8123L283.894 77.6134V74.4447C283.894 73.9956 283.716 73.565 283.398 73.2474C283.08 72.9299 282.648 72.7515 282.198 72.7515C281.748 72.7515 281.317 72.9299 280.999 73.2474C280.68 73.565 280.502 73.9956 280.502 74.4447V77.6134L280.311 83.8123C280.311 84.3431 280.145 84.8609 279.837 85.2934C279.528 85.7258 279.093 86.0514 278.59 86.2248C278.087 86.3982 277.543 86.4108 277.033 86.2607C276.522 86.1106 276.072 85.8053 275.744 85.3875C275.339 85.9036 274.751 86.2441 274.101 86.3383C273.452 86.4325 272.791 86.273 272.256 85.8932V87.5887C272.256 88.3924 271.936 89.1631 271.367 89.7314C270.797 90.2996 270.025 90.6189 269.22 90.6189C268.415 90.6189 267.643 90.2996 267.073 89.7314C266.504 89.1631 266.184 88.3924 266.184 87.5887V82.3537C266.184 82.9376 265.984 83.504 265.616 83.9582C265.249 84.4124 264.736 84.727 264.164 84.8495C263.592 84.9719 262.995 84.8948 262.473 84.6311C261.951 84.3673 261.536 83.9329 261.296 83.4002V87.5887C261.295 88.3918 260.975 89.1617 260.406 89.7293C259.836 90.2969 259.065 90.6157 258.26 90.6157C257.455 90.6157 256.684 90.2969 256.114 89.7293C255.545 89.1617 255.225 88.3918 255.224 87.5887V77.6134H255.207V87.5887C255.207 88.3924 254.887 89.1631 254.318 89.7314C253.748 90.2996 252.976 90.6189 252.171 90.6189C251.366 90.6189 250.594 90.2996 250.024 89.7314C249.455 89.1631 249.135 88.3924 249.135 87.5887V83.4355C248.889 83.9614 248.47 84.3878 247.948 84.6441C247.426 84.9004 246.832 84.9714 246.265 84.8453C245.697 84.7192 245.189 84.4036 244.825 83.9506C244.462 83.4976 244.263 82.9343 244.264 82.3537V77.6134H244.003V86.1302C244.003 86.9338 243.683 87.7046 243.114 88.2728C242.545 88.8411 241.772 89.1604 240.967 89.1604C240.162 89.1604 239.39 88.8411 238.82 88.2728C238.251 87.7046 237.931 86.9338 237.931 86.1302V82.3537C237.931 83.0307 237.662 83.6799 237.182 84.1586C236.703 84.6373 236.052 84.9062 235.374 84.9062C234.696 84.9062 234.045 84.6373 233.566 84.1586C233.086 83.6799 232.816 83.0307 232.816 82.3537V76.7346C236.567 70.2402 241.993 64.8675 248.529 61.1755C255.066 57.4836 262.474 55.6072 269.983 55.7418C277.493 55.8763 284.829 58.0167 291.228 61.9404C297.627 65.864 302.857 71.4276 306.371 78.0522Z" fill="#E6E6E6"/>
<path opacity="0.2" d="M252.171 89.1603C251.772 89.1604 251.377 89.082 251.009 88.9297C250.641 88.7775 250.306 88.5543 250.024 88.2729C249.742 87.9915 249.519 87.6575 249.366 87.2898C249.213 86.9222 249.135 86.5281 249.135 86.1302V87.7103C249.135 88.5139 249.455 89.2847 250.024 89.8529C250.594 90.4212 251.366 90.7404 252.171 90.7404C252.976 90.7404 253.748 90.4212 254.318 89.8529C254.887 89.2847 255.207 88.5139 255.207 87.7103V86.1302C255.207 86.5281 255.128 86.9222 254.976 87.2898C254.823 87.6575 254.6 87.9915 254.318 88.2729C254.036 88.5543 253.701 88.7775 253.333 88.9297C252.964 89.082 252.57 89.1604 252.171 89.1603Z" fill="black"/>
<path opacity="0.2" d="M258.26 89.1603C257.861 89.1604 257.466 89.082 257.098 88.9297C256.73 88.7775 256.395 88.5543 256.113 88.2729C255.831 87.9915 255.608 87.6575 255.455 87.2898C255.302 86.9222 255.224 86.5281 255.224 86.1302V87.7103C255.224 88.5139 255.544 89.2847 256.113 89.8529C256.683 90.4212 257.455 90.7404 258.26 90.7404C259.065 90.7404 259.837 90.4212 260.407 89.8529C260.976 89.2847 261.296 88.5139 261.296 87.7103V86.1302C261.296 86.5281 261.217 86.9222 261.065 87.2898C260.912 87.6575 260.689 87.9915 260.407 88.2729C260.125 88.5543 259.79 88.7775 259.422 88.9297C259.053 89.082 258.659 89.1604 258.26 89.1603Z" fill="black"/>
<path opacity="0.2" d="M249.135 81.9769C248.889 82.5029 248.47 82.9292 247.948 83.1855C247.426 83.4419 246.832 83.5128 246.265 83.3868C245.697 83.2607 245.189 82.9451 244.825 82.492C244.462 82.039 244.263 81.4757 244.264 80.8952V82.4753C244.263 83.0558 244.462 83.6191 244.825 84.0721C245.189 84.5252 245.697 84.8408 246.265 84.9669C246.832 85.0929 247.426 85.022 247.948 84.7656C248.47 84.5093 248.889 84.083 249.135 83.557V81.9769Z" fill="black"/>
<path opacity="0.2" d="M255.224 76.1548H255.207V77.735H255.224V76.1548Z" fill="black"/>
<path opacity="0.2" d="M237.931 80.8951C237.931 81.5721 237.662 82.2213 237.182 82.7C236.703 83.1787 236.052 83.4476 235.374 83.4476C234.696 83.4476 234.045 83.1787 233.566 82.7C233.086 82.2213 232.816 81.5721 232.816 80.8951V82.4753C232.816 83.1522 233.086 83.8014 233.566 84.2801C234.045 84.7588 234.696 85.0277 235.374 85.0277C236.052 85.0277 236.703 84.7588 237.182 84.2801C237.662 83.8014 237.931 83.1522 237.931 82.4753V80.8951Z" fill="black"/>
<path opacity="0.2" d="M244.264 76.1548H244.003V77.735H244.264V76.1548Z" fill="black"/>
<path opacity="0.2" d="M240.967 87.7018C240.568 87.7018 240.174 87.6235 239.805 87.4712C239.437 87.3189 239.102 87.0957 238.82 86.8143C238.538 86.533 238.315 86.1989 238.162 85.8312C238.01 85.4636 237.931 85.0696 237.931 84.6716V86.2517C237.931 87.0554 238.251 87.8261 238.82 88.3944C239.39 88.9626 240.162 89.2819 240.967 89.2819C241.772 89.2819 242.545 88.9626 243.114 88.3944C243.683 87.8261 244.003 87.0554 244.003 86.2517V84.6716C244.003 85.0696 243.925 85.4636 243.772 85.8312C243.62 86.1989 243.396 86.533 243.114 86.8143C242.832 87.0957 242.497 87.3189 242.129 87.4712C241.761 87.6235 241.366 87.7018 240.967 87.7018Z" fill="black"/>
<path opacity="0.2" d="M269.22 89.1603C268.821 89.1604 268.427 89.082 268.058 88.9297C267.69 88.7775 267.355 88.5543 267.073 88.2729C266.791 87.9915 266.568 87.6575 266.415 87.2898C266.263 86.9222 266.184 86.5281 266.184 86.1302V87.7103C266.184 88.5139 266.504 89.2847 267.073 89.8529C267.643 90.4212 268.415 90.7404 269.22 90.7404C270.025 90.7404 270.797 90.4212 271.367 89.8529C271.936 89.2847 272.256 88.5139 272.256 87.7103V86.1302C272.256 86.5281 272.178 86.9222 272.025 87.2898C271.872 87.6575 271.649 87.9915 271.367 88.2729C271.085 88.5543 270.75 88.7775 270.382 88.9297C270.014 89.082 269.619 89.1604 269.22 89.1603Z" fill="black"/>
<path opacity="0.2" d="M291.514 74.4447C291.514 74.1707 291.405 73.9079 291.211 73.7141C291.017 73.5204 290.754 73.4115 290.479 73.4115C290.205 73.4115 289.941 73.5204 289.747 73.7141C289.553 73.9079 289.444 74.1707 289.444 74.4447V76.0248C289.444 75.7508 289.553 75.488 289.747 75.2942C289.941 75.1005 290.205 74.9916 290.479 74.9916C290.754 74.9916 291.017 75.1005 291.211 75.2942C291.405 75.488 291.514 75.7508 291.514 76.0248V74.4447Z" fill="black"/>
<path opacity="0.2" d="M266.184 80.8951C266.184 81.4791 265.984 82.0454 265.616 82.4996C265.249 82.9538 264.736 83.2684 264.164 83.3909C263.592 83.5133 262.995 83.4363 262.473 83.1725C261.951 82.9088 261.536 82.4743 261.296 81.9417V83.5218C261.536 84.0544 261.951 84.4889 262.473 84.7526C262.995 85.0164 263.592 85.0935 264.164 84.971C264.736 84.8485 265.249 84.5339 265.616 84.0797C265.984 83.6255 266.184 83.0592 266.184 82.4753V80.8951Z" fill="black"/>
<path opacity="0.2" d="M286.765 84.9062C286.429 84.9062 286.096 84.8403 285.786 84.712C285.476 84.5837 285.194 84.3957 284.956 84.1587C284.719 83.9217 284.531 83.6403 284.402 83.3306C284.274 83.0209 284.207 82.6889 284.208 82.3537L283.895 76.1548V77.7349L284.208 83.9338C284.208 84.6108 284.477 85.26 284.957 85.7387C285.436 86.2174 286.087 86.4863 286.765 86.4863C287.443 86.4863 288.094 86.2174 288.573 85.7387C289.053 85.26 289.322 84.6108 289.322 83.9338L289.444 77.7349V76.1548L289.322 82.3537C289.322 82.6889 289.256 83.0209 289.128 83.3306C288.999 83.6403 288.811 83.9217 288.573 84.1587C288.336 84.3957 288.054 84.5837 287.744 84.712C287.433 84.8403 287.101 84.9062 286.765 84.9062Z" fill="black"/>
<path opacity="0.2" d="M303.814 86.1217C303.469 86.1218 303.128 86.0522 302.811 85.917C302.495 85.7818 302.208 85.5839 301.97 85.3352V86.1302C301.97 86.9338 301.65 87.7046 301.081 88.2728C300.512 88.8411 299.74 89.1603 298.934 89.1603C298.129 89.1603 297.357 88.8411 296.788 88.2728C296.218 87.7046 295.898 86.9338 295.898 86.1302V85.4677C295.531 85.7974 295.076 86.0138 294.588 86.0906C294.1 86.1674 293.6 86.1013 293.149 85.9004C292.698 85.6995 292.315 85.3723 292.047 84.9586C291.778 84.5448 291.635 84.0622 291.636 83.5692L291.514 76.1548V77.7349L291.636 85.1493C291.635 85.6423 291.778 86.1249 292.047 86.5387C292.315 86.9524 292.698 87.2796 293.149 87.4805C293.6 87.6814 294.1 87.7475 294.588 87.6707C295.076 87.5939 295.531 87.3775 295.898 87.0478V87.7103C295.898 88.5139 296.218 89.2847 296.788 89.8529C297.357 90.4212 298.129 90.7404 298.934 90.7404C299.74 90.7404 300.512 90.4212 301.081 89.8529C301.65 89.2847 301.97 88.5139 301.97 87.7103V86.9153C302.323 87.2832 302.778 87.5371 303.277 87.6445C303.776 87.7518 304.296 87.7077 304.769 87.5177C305.243 87.3277 305.648 87.0006 305.934 86.5785C306.219 86.1564 306.372 85.6586 306.371 85.1493V83.5692C306.371 83.9044 306.305 84.2363 306.177 84.546C306.048 84.8557 305.86 85.1371 305.622 85.3741C305.385 85.6112 305.103 85.7992 304.793 85.9274C304.482 86.0557 304.15 86.1217 303.814 86.1217Z" fill="black"/>
<path opacity="0.2" d="M277.753 84.9062C277.366 84.9062 276.984 84.8182 276.636 84.6489C276.287 84.4796 275.982 84.2334 275.744 83.929C275.339 84.445 274.751 84.7856 274.102 84.8798C273.452 84.974 272.791 84.8145 272.256 84.4346V86.0147C272.791 86.3946 273.452 86.5541 274.102 86.4599C274.751 86.3657 275.339 86.0251 275.744 85.5091C276.072 85.9269 276.522 86.2321 277.033 86.3822C277.543 86.5323 278.087 86.5198 278.59 86.3464C279.093 86.173 279.529 85.8474 279.837 85.4149C280.145 84.9824 280.311 84.4647 280.311 83.9338L280.502 77.735V76.1549L280.311 82.3537C280.311 82.689 280.244 83.0209 280.116 83.3306C279.987 83.6403 279.799 83.9217 279.562 84.1587C279.324 84.3957 279.042 84.5837 278.732 84.712C278.422 84.8403 278.089 84.9063 277.753 84.9062Z" fill="black"/>
<path opacity="0.2" d="M283.895 72.9861C283.895 72.5371 283.716 72.1064 283.398 71.7889C283.08 71.4714 282.648 71.293 282.198 71.293C281.748 71.293 281.317 71.4714 280.999 71.7889C280.68 72.1064 280.502 72.5371 280.502 72.9861V74.5662C280.502 74.1172 280.68 73.6865 280.999 73.369C281.317 73.0515 281.748 72.8731 282.198 72.8731C282.648 72.8731 283.08 73.0515 283.398 73.369C283.716 73.6865 283.895 74.1172 283.895 74.5662V72.9861Z" fill="black"/>
<path d="M255.528 73.2985H254.919V76.5803H255.528V73.2985Z" fill="#3F3D56"/>
<path d="M267.037 71.5361H266.428V74.8178H267.037V71.5361Z" fill="#3F3D56"/>
<path d="M299.186 73.4808H298.578V76.7626H299.186V73.4808Z" fill="#3F3D56"/>
<path d="M252.423 84.42H251.814V87.7018H252.423V84.42Z" fill="#3F3D56"/>
<path d="M277.295 78.6855L276.794 78.3397L274.923 81.0385L275.424 81.3843L277.295 78.6855Z" fill="#3F3D56"/>
<path d="M245.051 73.5006L244.673 73.9772L247.252 76.0135L247.63 75.5369L245.051 73.5006Z" fill="#3F3D56"/>
<path d="M280.854 61.2244L280.476 61.701L283.055 63.7373L283.433 63.2607L280.854 61.2244Z" fill="#3F3D56"/>
<path d="M238.353 76.9052L237.975 77.3818L240.553 79.418L240.931 78.9415L238.353 76.9052Z" fill="#3F3D56"/>
<path d="M257.781 65.5803H257.172V68.8621H257.781V65.5803Z" fill="white"/>
<path d="M241.098 82.4753H240.489V85.757H241.098V82.4753Z" fill="white"/>
<path d="M269.594 60.84H268.985V64.1217H269.594V60.84Z" fill="white"/>
<path d="M298.821 81.3813H298.212V84.6631H298.821V81.3813Z" fill="white"/>
<path d="M272.978 72.3328L272.434 72.0602L270.959 74.9935L271.504 75.2661L272.978 72.3328Z" fill="white"/>
<path d="M270.177 84.4875L269.633 84.2149L268.158 87.1482L268.703 87.4207L270.177 84.4875Z" fill="white"/>
<path d="M303.788 79.0178L303.244 78.7453L301.77 81.6786L302.314 81.9511L303.788 79.0178Z" fill="white"/>
<path d="M261.807 77.8168L261.403 78.2716L263.863 80.4486L264.267 79.9939L261.807 77.8168Z" fill="white"/>
<path d="M249.751 63.5958L249.347 64.0506L251.807 66.2277L252.211 65.7729L249.751 63.5958Z" fill="white"/>
<path d="M289.816 69.0654L289.412 69.5202L291.873 71.6973L292.277 71.2425L289.816 69.0654Z" fill="white"/>
<path d="M275.081 58.3693L274.677 58.8241L277.137 61.0012L277.541 60.5464L275.081 58.3693Z" fill="white"/>
<path d="M262.409 71.5361H261.8V74.8178H262.409V71.5361Z" fill="#FF6584"/>
<path d="M296.76 73.6085L296.2 73.371L294.915 76.3918L295.475 76.6293L296.76 73.6085Z" fill="#FF6584"/>
<path d="M250.221 76.8305L249.693 77.1343L251.337 79.9764L251.865 79.6726L250.221 76.8305Z" fill="#FF6584"/>
<path d="M285.05 74.5211L284.522 74.825L286.166 77.6671L286.694 77.3632L285.05 74.5211Z" fill="#FF6584"/>
<path d="M263.373 62.488L262.846 62.7918L264.49 65.6339L265.017 65.3301L263.373 62.488Z" fill="#FF6584"/>
<path d="M289.19 61.8802L288.663 62.1841L290.307 65.0262L290.834 64.7223L289.19 61.8802Z" fill="#FF6584"/>
<path d="M255.701 59.2062L255.173 59.5101L256.817 62.3522L257.345 62.0483L255.701 59.2062Z" fill="#FF6584"/>
<path d="M277.631 64.9725H277.023V68.2543H277.631V64.9725Z" fill="#FF6584"/>
<path d="M242.559 70.4422H241.95V73.7239H242.559V70.4422Z" fill="#FF6584"/>
<path d="M123.696 190.348C131.798 190.348 138.365 183.793 138.365 175.706C138.365 167.62 131.798 161.065 123.696 161.065C115.594 161.065 109.026 167.62 109.026 175.706C109.026 183.793 115.594 190.348 123.696 190.348Z" fill="#2F2E41"/>
<path d="M129.362 194.459L133.747 193.667L132.325 185.825L127.939 186.617L129.362 194.459Z" fill="#2F2E41"/>
<path d="M120.591 196.044L124.976 195.251L123.554 187.41L119.169 188.202L120.591 196.044Z" fill="#2F2E41"/>
<path d="M122.919 197.694C124.484 196.371 125.35 194.824 124.853 194.238C124.356 193.652 122.684 194.25 121.119 195.573C119.554 196.896 118.688 198.443 119.185 199.029C119.682 199.615 121.354 199.017 122.919 197.694Z" fill="#2F2E41"/>
<path d="M131.507 196.142C133.072 194.819 133.938 193.272 133.441 192.686C132.944 192.1 131.272 192.698 129.707 194.021C128.142 195.344 127.276 196.891 127.773 197.477C128.27 198.063 129.942 197.465 131.507 196.142Z" fill="#2F2E41"/>
<path d="M122.669 177.129C125.438 177.129 127.682 174.889 127.682 172.125C127.682 169.361 125.438 167.121 122.669 167.121C119.9 167.121 117.655 169.361 117.655 172.125C117.655 174.889 119.9 177.129 122.669 177.129Z" fill="white"/>
<path d="M120.608 171.999C121.531 171.999 122.28 171.253 122.28 170.331C122.28 169.41 121.531 168.663 120.608 168.663C119.685 168.663 118.937 169.41 118.937 170.331C118.937 171.253 119.685 171.999 120.608 171.999Z" fill="#3F3D56"/>
<path d="M135.268 159.778C135.489 154.358 130.808 149.767 124.814 149.524C118.819 149.281 113.781 153.478 113.56 158.898C113.34 164.319 117.507 165.55 123.501 165.793C129.495 166.036 135.047 165.199 135.268 159.778Z" fill="#CFCCE0"/>
<path d="M117.3 174.675C117.584 173.437 114.614 171.702 110.665 170.799C106.717 169.896 103.286 170.166 103.001 171.403C102.717 172.641 105.688 174.376 109.636 175.279C113.585 176.182 117.016 175.912 117.3 174.675Z" fill="#2F2E41"/>
<path d="M146.096 179.454C146.38 178.217 143.409 176.482 139.461 175.578C135.512 174.675 132.081 174.946 131.797 176.183C131.513 177.42 134.483 179.155 138.432 180.059C142.38 180.962 145.811 180.691 146.096 179.454Z" fill="#2F2E41"/>
<path d="M127.725 181.476C127.803 181.908 127.796 182.35 127.703 182.778C127.61 183.207 127.434 183.613 127.183 183.973C126.933 184.333 126.615 184.641 126.245 184.878C125.876 185.115 125.464 185.277 125.032 185.355C124.6 185.433 124.156 185.426 123.727 185.333C123.298 185.24 122.892 185.063 122.531 184.813C122.17 184.564 121.862 184.245 121.625 183.877C121.387 183.508 121.225 183.096 121.147 182.665C120.818 180.852 122.223 180.21 124.039 179.882C125.855 179.554 127.396 179.663 127.725 181.476Z" fill="white"/>
<path d="M207.075 124.911C208.558 121.04 208.773 117.525 207.555 117.06C206.337 116.596 204.148 119.358 202.666 123.229C201.183 127.101 200.968 130.616 202.186 131.08C203.404 131.545 205.593 128.783 207.075 124.911Z" fill="#2F2E41"/>
<path d="M196.111 193.54C204.416 193.54 211.148 186.821 211.148 178.531C211.148 170.242 204.416 163.522 196.111 163.522C187.805 163.522 181.073 170.242 181.073 178.531C181.073 186.821 187.805 193.54 196.111 193.54Z" fill="#2F2E41"/>
<path d="M193.826 190.311H189.258V198.48H193.826V190.311Z" fill="#2F2E41"/>
<path d="M202.963 190.311H198.395V198.48H202.963V190.311Z" fill="#2F2E41"/>
<path d="M193.065 200C195.167 200 196.872 199.362 196.872 198.575C196.872 197.788 195.167 197.15 193.065 197.15C190.962 197.15 189.258 197.788 189.258 198.575C189.258 199.362 190.962 200 193.065 200Z" fill="#2F2E41"/>
<path d="M202.202 199.81C204.304 199.81 206.009 199.172 206.009 198.385C206.009 197.598 204.304 196.96 202.202 196.96C200.099 196.96 198.395 197.598 198.395 198.385C198.395 199.172 200.099 199.81 202.202 199.81Z" fill="#2F2E41"/>
<path d="M196.491 179.861C199.33 179.861 201.631 177.565 201.631 174.732C201.631 171.899 199.33 169.602 196.491 169.602C193.653 169.602 191.352 171.899 191.352 174.732C191.352 177.565 193.653 179.861 196.491 179.861Z" fill="white"/>
<path d="M196.491 176.442C197.437 176.442 198.204 175.676 198.204 174.732C198.204 173.787 197.437 173.022 196.491 173.022C195.545 173.022 194.778 173.787 194.778 174.732C194.778 175.676 195.545 176.442 196.491 176.442Z" fill="#3F3D56"/>
<path d="M181.523 164.573C180.309 159.146 184.191 153.662 190.193 152.324C196.195 150.986 202.045 154.302 203.259 159.729C204.474 165.157 200.496 167.159 194.493 168.496C188.491 169.834 182.738 170.001 181.523 164.573Z" fill="#CFCCE0"/>
<path d="M190.971 150.413C199.276 150.413 206.009 143.693 206.009 135.404C206.009 127.115 199.276 120.395 190.971 120.395C182.666 120.395 175.933 127.115 175.933 135.404C175.933 143.693 182.666 150.413 190.971 150.413Z" fill="#2F2E41"/>
<path d="M188.687 147.183H184.118V155.353H188.687V147.183Z" fill="#2F2E41"/>
<path d="M197.824 147.183H193.255V155.353H197.824V147.183Z" fill="#2F2E41"/>
<path d="M187.925 156.873C190.028 156.873 191.732 156.235 191.732 155.448C191.732 154.661 190.028 154.023 187.925 154.023C185.823 154.023 184.118 154.661 184.118 155.448C184.118 156.235 185.823 156.873 187.925 156.873Z" fill="#2F2E41"/>
<path d="M197.062 156.683C199.165 156.683 200.869 156.045 200.869 155.258C200.869 154.471 199.165 153.833 197.062 153.833C194.96 153.833 193.255 154.471 193.255 155.258C193.255 156.045 194.96 156.683 197.062 156.683Z" fill="#2F2E41"/>
<path d="M191.352 136.734C194.19 136.734 196.491 134.438 196.491 131.605C196.491 128.771 194.19 126.475 191.352 126.475C188.513 126.475 186.212 128.771 186.212 131.605C186.212 134.438 188.513 136.734 191.352 136.734Z" fill="white"/>
<path d="M191.352 133.314C192.298 133.314 193.065 132.549 193.065 131.604C193.065 130.66 192.298 129.895 191.352 129.895C190.406 129.895 189.639 130.66 189.639 131.604C189.639 132.549 190.406 133.314 191.352 133.314Z" fill="#3F3D56"/>
<path d="M176.384 121.446C175.17 116.019 179.051 110.535 185.053 109.197C191.055 107.859 196.906 111.175 198.12 116.602C199.334 122.03 195.356 124.031 189.354 125.369C183.352 126.707 177.598 126.874 176.384 121.446Z" fill="#CFCCE0"/>
<path d="M180.827 131.656C181.386 130.48 178.797 128.087 175.045 126.311C171.293 124.535 167.799 124.049 167.24 125.224C166.681 126.4 169.27 128.793 173.022 130.569C176.774 132.345 180.268 132.832 180.827 131.656Z" fill="#2F2E41"/>
<path d="M183.585 140.819C183.585 142.288 187.374 145.189 191.579 145.189C195.784 145.189 199.727 141.053 199.727 139.584C199.727 138.115 195.784 139.869 191.579 139.869C187.374 139.869 183.585 139.35 183.585 140.819Z" fill="white"/>
<path d="M234.885 156.02C236.042 156.02 236.98 155.084 236.98 153.929C236.98 152.775 236.042 151.838 234.885 151.838C233.728 151.838 232.79 152.775 232.79 153.929C232.79 155.084 233.728 156.02 234.885 156.02Z" fill="#81ECEC"/>
<path d="M240.591 139.14C241.748 139.14 242.686 138.204 242.686 137.049C242.686 135.894 241.748 134.958 240.591 134.958C239.434 134.958 238.496 135.894 238.496 137.049C238.496 138.204 239.434 139.14 240.591 139.14Z" fill="#81ECEC"/>
<path d="M235.374 130.512C236.531 130.512 237.469 129.576 237.469 128.421C237.469 127.266 236.531 126.33 235.374 126.33C234.217 126.33 233.279 127.266 233.279 128.421C233.279 129.576 234.217 130.512 235.374 130.512Z" fill="#81ECEC"/>
<path d="M217.289 186.956L218.416 191.024L225.72 189.009L224.593 184.94L217.289 186.956Z" fill="#2F2E41"/>
<path d="M217.795 191.742C218.498 191.548 218.648 189.873 218.13 188C217.611 186.127 216.62 184.767 215.917 184.961C215.213 185.155 215.063 186.83 215.582 188.703C216.1 190.576 217.091 191.936 217.795 191.742Z" fill="#2F2E41"/>
<path d="M240.344 172.962C240.86 169.16 240.31 165.946 239.114 165.785C237.918 165.623 236.53 168.574 236.013 172.376C235.497 176.179 236.048 179.392 237.244 179.554C238.44 179.716 239.828 176.764 240.344 172.962Z" fill="#2F2E41"/>
<path d="M236.816 199.571C244.505 199.571 250.738 193.35 250.738 185.676C250.738 178.002 244.505 171.781 236.816 171.781C229.127 171.781 222.894 178.002 222.894 185.676C222.894 193.35 229.127 199.571 236.816 199.571Z" fill="#2F2E41"/>
<path d="M217.289 184.493L218.416 188.562L225.72 186.547L224.593 182.478L217.289 184.493Z" fill="#2F2E41"/>
<path d="M217.794 189.282C218.498 189.087 218.648 187.412 218.129 185.54C217.611 183.667 216.62 182.306 215.916 182.5C215.213 182.694 215.063 184.37 215.581 186.242C216.1 188.115 217.091 189.476 217.794 189.282Z" fill="#2F2E41"/>
<path d="M240.472 182.465C243.099 182.465 245.23 180.339 245.23 177.716C245.23 175.093 243.099 172.967 240.472 172.967C237.844 172.967 235.714 175.093 235.714 177.716C235.714 180.339 237.844 182.465 240.472 182.465Z" fill="white"/>
<path d="M241.993 177.201C242.869 177.201 243.579 176.492 243.579 175.618C243.579 174.744 242.869 174.035 241.993 174.035C241.117 174.035 240.407 174.744 240.407 175.618C240.407 176.492 241.117 177.201 241.993 177.201Z" fill="#3F3D56"/>
<path d="M252.893 195.224C258.045 194.967 261.99 190.158 261.706 184.482C261.421 178.806 257.014 174.414 251.862 174.671C246.71 174.929 245.902 178.965 246.187 184.641C246.471 190.316 247.741 195.482 252.893 195.224Z" fill="#CFCCE0"/>
<path d="M231.126 179.797C230.288 179.865 229.456 179.597 228.816 179.053C228.175 178.509 227.776 177.733 227.709 176.897C227.641 176.06 227.909 175.23 228.454 174.59C228.999 173.951 229.776 173.553 230.614 173.485C232.361 173.344 232.837 174.728 232.978 176.471C233.119 178.214 232.872 179.656 231.126 179.797Z" fill="white"/>
<path d="M235.119 176.264C235.635 172.462 235.084 169.248 233.888 169.086C232.692 168.925 231.304 171.876 230.788 175.678C230.272 179.48 230.823 182.694 232.018 182.856C233.214 183.017 234.602 180.066 235.119 176.264Z" fill="#2F2E41"/>
<path d="M233.838 169.612C234.995 169.612 235.933 168.676 235.933 167.521C235.933 166.366 234.995 165.43 233.838 165.43C232.681 165.43 231.743 166.366 231.743 167.521C231.743 168.676 232.681 169.612 233.838 169.612Z" fill="#81ECEC"/>
<path d="M221.629 119.421C221.677 119.053 221.646 118.68 221.537 118.325C221.428 117.97 221.245 117.643 220.999 117.365C220.753 117.087 220.45 116.865 220.111 116.714C219.772 116.562 219.404 116.485 219.032 116.488H218.203C218.403 116.112 218.509 115.693 218.509 115.268C218.507 114.575 218.23 113.912 217.739 113.422C217.249 112.932 216.584 112.656 215.89 112.654H207.161C206.466 112.654 205.8 112.93 205.309 113.42C204.818 113.91 204.542 114.575 204.542 115.268C204.542 115.961 204.818 116.626 205.309 117.116C205.8 117.606 206.466 117.882 207.161 117.882H207.99C207.789 118.257 207.684 118.676 207.684 119.101C207.686 119.645 207.857 120.175 208.174 120.617C208.491 121.059 208.937 121.392 209.452 121.57C209.404 121.938 209.435 122.311 209.544 122.666C209.653 123.021 209.836 123.348 210.082 123.626C210.328 123.904 210.631 124.126 210.97 124.277C211.31 124.428 211.677 124.506 212.049 124.503H220.778C221.398 124.504 221.997 124.285 222.47 123.885C222.943 123.486 223.259 122.932 223.361 122.322C223.463 121.712 223.345 121.086 223.028 120.555C222.711 120.023 222.215 119.622 221.629 119.421Z" fill="#81ECEC"/>
<path d="M104.494 138.306L104.305 138.117L103.282 139.137L103.472 139.326L104.494 138.306Z" fill="#3F3D56"/>
</g>
<defs>
<clipPath id="clip0">
<rect width="311.243" height="200" fill="white"/>
</clipPath>
</defs>
</svg>
