<svg width="255" height="200" viewBox="0 0 255 200" fill="none" xmlns="http://www.w3.org/2000/svg">
<g clip-path="url(#clip0)">
<path d="M241.766 187.935L252.794 172.421L241.744 189.634L241.72 191.411C240.944 191.397 240.177 191.364 239.418 191.313C239.419 190.909 240.565 168.713 240.53 168.31C240.584 168.296 240.635 166.211 240.657 166.12L229.47 148.935L240.685 164.504L240.714 164.962L241.562 147.716L231.976 129.951L241.669 144.685C241.675 144.451 242.492 109.032 242.499 108.814C242.5 108.93 242.431 137.006 242.432 137.124L251.882 125.917L242.398 139.552L242.196 154.992L251.01 140.148C239.979 161.815 242.448 154.219 242.056 165.848L254.85 145.183L242.015 168.843L241.766 187.935Z" fill="#D0CDE1"/>
<path d="M126.6 200C196.519 200 253.2 197.352 253.2 194.085C253.2 190.817 196.519 188.169 126.6 188.169C56.6807 188.169 0 190.817 0 194.085C0 197.352 56.6807 200 126.6 200Z" fill="#D0CDE1"/>
<path d="M144.264 2.14702V92.0152C144.264 93.3167 143.747 94.5649 142.827 95.4853C141.907 96.4056 140.659 96.9226 139.358 96.9226C138.056 96.9226 136.808 96.4056 135.888 95.4853C134.968 94.5649 134.451 93.3167 134.451 92.0152V2.14702C134.451 -0.564373 136.647 1.53358 139.358 1.53358C140.713 1.53358 140.615 0.033732 141.504 0.920149C142.391 1.80962 144.264 0.791314 144.264 2.14702Z" fill="#A0616A"/>
<path opacity="0.1" d="M144.264 4.4474H134.451V8.12801H144.264V4.4474Z" fill="black"/>
<path opacity="0.1" d="M144.264 16.1027H134.451V19.7833H144.264V16.1027Z" fill="black"/>
<path opacity="0.1" d="M144.264 27.7579H134.451V31.4385H144.264V27.7579Z" fill="black"/>
<path opacity="0.1" d="M144.264 39.4132H134.451V43.0938H144.264V39.4132Z" fill="black"/>
<path opacity="0.1" d="M144.264 51.0684H134.451V54.749H144.264V51.0684Z" fill="black"/>
<path opacity="0.1" d="M144.264 62.7237H134.451V66.4043H144.264V62.7237Z" fill="black"/>
<path opacity="0.1" d="M144.264 74.3789H134.451V78.0595H144.264V74.3789Z" fill="black"/>
<path opacity="0.1" d="M144.264 86.0342H134.451V89.7148H144.264V86.0342Z" fill="black"/>
<path d="M139.358 3.06717C142.068 3.06717 144.264 2.38056 144.264 1.53359C144.264 0.68661 142.068 0 139.358 0C136.648 0 134.451 0.68661 134.451 1.53359C134.451 2.38056 136.648 3.06717 139.358 3.06717Z" fill="#A0616A"/>
<path opacity="0.1" d="M139.358 3.06717C142.068 3.06717 144.264 2.38056 144.264 1.53359C144.264 0.68661 142.068 0 139.358 0C136.648 0 134.451 0.68661 134.451 1.53359C134.451 2.38056 136.648 3.06717 139.358 3.06717Z" fill="black"/>
<path d="M190.246 21.2246L133.389 90.813C132.981 91.3122 132.479 91.7261 131.911 92.0313C131.344 92.3364 130.721 92.5267 130.08 92.5913C129.439 92.6559 128.791 92.5935 128.174 92.4077C127.557 92.222 126.983 91.9164 126.484 91.5086C125.985 91.1007 125.571 90.5985 125.266 90.0307C124.961 89.4629 124.771 88.8405 124.706 88.1992C124.642 87.5579 124.704 86.9102 124.89 86.293C125.076 85.6758 125.382 85.1014 125.79 84.6023L182.647 15.014C184.362 12.9145 184.735 15.9286 186.834 17.6443C187.884 18.5021 188.757 17.2786 188.885 18.5279C189.008 19.7775 191.103 20.1748 190.246 21.2246Z" fill="#A0616A"/>
<path opacity="0.1" d="M181.191 16.7953L178.863 19.6453L186.462 25.8559L188.79 23.0059L181.191 16.7953Z" fill="black"/>
<path opacity="0.1" d="M173.817 25.8204L171.489 28.6704L179.088 34.881L181.416 32.031L173.817 25.8204Z" fill="black"/>
<path opacity="0.1" d="M166.443 34.8455L164.115 37.6955L171.714 43.9061L174.042 41.0561L166.443 34.8455Z" fill="black"/>
<path opacity="0.1" d="M159.07 43.8706L156.741 46.7206L164.34 52.9312L166.668 50.0812L159.07 43.8706Z" fill="black"/>
<path opacity="0.1" d="M151.696 52.8957L149.367 55.7457L156.966 61.9564L159.294 59.1063L151.696 52.8957Z" fill="black"/>
<path opacity="0.1" d="M144.322 61.9208L141.993 64.7708L149.592 70.9815L151.921 68.1314L144.322 61.9208Z" fill="black"/>
<path opacity="0.1" d="M136.948 70.9455L134.619 73.7955L142.218 80.0061L144.546 77.1561L136.948 70.9455Z" fill="black"/>
<path opacity="0.1" d="M129.574 79.971L127.245 82.8211L134.844 89.0317L137.173 86.1817L129.574 79.971Z" fill="black"/>
<path d="M190.634 20.7496C191.17 20.0938 189.903 18.1718 187.805 16.4568C185.706 14.7418 183.571 13.8831 183.035 14.539C182.499 15.1948 183.766 17.1168 185.864 18.8318C187.963 20.5468 190.098 21.4054 190.634 20.7496Z" fill="#A0616A"/>
<path opacity="0.1" d="M190.634 20.7496C191.17 20.0938 189.903 18.1718 187.805 16.4568C185.706 14.7418 183.571 13.8831 183.035 14.539C182.499 15.1948 183.766 17.1168 185.864 18.8318C187.963 20.5468 190.098 21.4054 190.634 20.7496Z" fill="black"/>
<path d="M189.779 104.591H176.647L176.744 102.134L177.308 87.6199L177.59 80.409H86.1505L86.2946 84.0988L86.6688 93.7205L87.3803 111.979L87.8556 124.135L88.4689 139.857L88.9903 153.285L89.1405 157.147L89.1436 157.193L89.2172 159.116L89.4073 163.934L89.4257 164.471L89.5545 167.741L89.576 168.329L89.7631 173.081L89.9287 177.362L89.987 178.841L90.0146 179.512L90.0391 180.163C90.0359 182.37 90.4651 184.556 91.3026 186.598C91.5223 187.138 91.7711 187.666 92.0478 188.18C94.0691 191.954 97.4386 194.827 101.484 196.225C102.018 196.413 102.562 196.571 103.112 196.701C104.397 197.006 105.714 197.16 107.035 197.158H156.703C159.201 197.161 161.669 196.613 163.931 195.551C166.448 194.36 168.638 192.573 170.31 190.346C171.02 189.401 171.628 188.384 172.125 187.312C172.165 187.226 172.205 187.14 172.239 187.055C173.084 185.16 173.571 183.125 173.674 181.052C173.689 180.758 173.698 180.46 173.698 180.163L173.858 176.068L174.054 171.041L174.073 170.541L174.276 165.321H189.779C195.274 165.314 200.542 163.129 204.428 159.242C208.313 155.356 210.499 150.087 210.505 144.592V125.319C210.499 119.824 208.313 114.555 204.428 110.669C200.542 106.783 195.274 104.597 189.779 104.591ZM198.238 144.592C198.235 146.835 197.343 148.985 195.758 150.571C194.172 152.157 192.022 153.049 189.779 153.052H174.757L174.759 152.997L174.901 149.371L175.008 146.605L175.615 131.042L176.168 116.859H189.779C192.022 116.862 194.172 117.754 195.758 119.34C197.343 120.926 198.236 123.076 198.238 125.319L198.238 144.592Z" fill="#81ECEC"/>
<path d="M108.149 24.1626C113.629 24.1626 118.072 19.7193 118.072 14.2382C118.072 8.75711 113.629 4.3138 108.149 4.3138C102.669 4.3138 98.226 8.75711 98.226 14.2382C98.226 19.7193 102.669 24.1626 108.149 24.1626Z" fill="#D0CDE1"/>
<path d="M114.38 47.6861C121.906 47.6861 128.007 41.584 128.007 34.0566C128.007 26.5292 121.906 20.427 114.38 20.427C106.854 20.427 100.752 26.5292 100.752 34.0566C100.752 41.584 106.854 47.6861 114.38 47.6861Z" fill="#D0CDE1"/>
<path d="M118.391 18.7849L102.73 23.7104C102.614 23.7468 102.518 23.8277 102.462 23.9352C102.406 24.0428 102.395 24.1682 102.431 24.284L102.712 25.1785C102.73 25.2358 102.759 25.289 102.798 25.3351C102.837 25.3811 102.884 25.4191 102.937 25.4469C102.99 25.4747 103.048 25.4917 103.108 25.497C103.168 25.5022 103.228 25.4957 103.286 25.4777L105.947 24.6405L106.306 24.8169L107.695 37.6599L109.898 39.2114L108.398 25.8474L118.494 30.8206L120.647 29.7274L108.65 23.7906L118.947 20.5521C119.004 20.5341 119.057 20.505 119.103 20.4664C119.149 20.4278 119.187 20.3805 119.215 20.3273C119.243 20.274 119.26 20.2158 119.265 20.156C119.271 20.0961 119.264 20.0359 119.246 19.9785L118.965 19.084C118.947 19.0267 118.918 18.9735 118.879 18.9275C118.84 18.8814 118.793 18.8434 118.74 18.8156C118.687 18.7879 118.628 18.7708 118.569 18.7656C118.509 18.7603 118.449 18.7668 118.391 18.7849Z" fill="#6C63FF"/>
<path d="M101.546 11.1824C101.546 11.1824 104.964 7.87891 104.736 7.15462C104.509 6.43032 102.232 4.75851 99.3355 5.66954C99.3355 5.66954 98.2014 4.59358 97.6512 5.8809C97.101 7.16822 98.6322 7.48255 98.6322 7.48255C98.6322 7.48255 97.8588 10.5911 100.677 11.4557L101.546 11.1824Z" fill="#6C63FF"/>
<path d="M104.02 14.2501C104.458 14.2501 104.813 13.8947 104.813 13.4562C104.813 13.0177 104.458 12.6622 104.02 12.6622C103.581 12.6622 103.226 13.0177 103.226 13.4562C103.226 13.8947 103.581 14.2501 104.02 14.2501Z" fill="#81ECEC"/>
<path d="M111.087 12.0273C111.526 12.0273 111.881 11.6718 111.881 11.2333C111.881 10.7948 111.526 10.4393 111.087 10.4393C110.649 10.4393 110.294 10.7948 110.294 11.2333C110.294 11.6718 110.649 12.0273 111.087 12.0273Z" fill="#81ECEC"/>
<path d="M108.764 13.7674L107.375 14.2041L108.725 18.4959L110.113 18.0593L108.764 13.7674Z" fill="#FF6584"/>
<path d="M113.164 30.1006C113.602 30.1006 113.958 29.7451 113.958 29.3066C113.958 28.8681 113.602 28.5127 113.164 28.5127C112.725 28.5127 112.37 28.8681 112.37 29.3066C112.37 29.7451 112.725 30.1006 113.164 30.1006Z" fill="#81ECEC"/>
<path d="M114.037 32.8777C114.475 32.8777 114.831 32.5222 114.831 32.0837C114.831 31.6452 114.475 31.2898 114.037 31.2898C113.599 31.2898 113.243 31.6452 113.243 32.0837C113.243 32.5222 113.599 32.8777 114.037 32.8777Z" fill="#81ECEC"/>
<path d="M114.91 35.6548C115.348 35.6548 115.704 35.2993 115.704 34.8608C115.704 34.4223 115.348 34.0668 114.91 34.0668C114.472 34.0668 114.116 34.4223 114.116 34.8608C114.116 35.2993 114.472 35.6548 114.91 35.6548Z" fill="#81ECEC"/>
<path d="M109.915 19.8545C108.651 20.2356 107.311 20.2939 106.019 20.024L106.068 19.764C107.317 20.0402 108.615 19.9836 109.835 19.6001C111.054 19.2166 112.151 18.5196 113.017 17.5787L113.206 17.7635C112.301 18.7246 111.169 19.4435 109.915 19.8545Z" fill="#81ECEC"/>
<path d="M113.821 13.532C114.187 13.532 114.483 13.2358 114.483 12.8704C114.483 12.5049 114.187 12.2087 113.821 12.2087C113.456 12.2087 113.16 12.5049 113.16 12.8704C113.16 13.2358 113.456 13.532 113.821 13.532Z" fill="#FF6584"/>
<path d="M102.715 17.0251C103.08 17.0251 103.376 16.7289 103.376 16.3635C103.376 15.998 103.08 15.7018 102.715 15.7018C102.349 15.7018 102.053 15.998 102.053 16.3635C102.053 16.7289 102.349 17.0251 102.715 17.0251Z" fill="#FF6584"/>
<path d="M144.554 118.283C145.414 118.283 146.111 117.585 146.111 116.725C146.111 115.865 145.414 115.167 144.554 115.167C143.693 115.167 142.996 115.865 142.996 116.725C142.996 117.585 143.693 118.283 144.554 118.283Z" fill="#FF6584"/>
<path d="M149.46 144.047C150.32 144.047 151.018 143.35 151.018 142.489C151.018 141.629 150.32 140.931 149.46 140.931C148.6 140.931 147.903 141.629 147.903 142.489C147.903 143.35 148.6 144.047 149.46 144.047Z" fill="#FF6584"/>
<path d="M118.793 150.488C119.654 150.488 120.351 149.791 120.351 148.93C120.351 148.07 119.654 147.372 118.793 147.372C117.933 147.372 117.236 148.07 117.236 148.93C117.236 149.791 117.933 150.488 118.793 150.488Z" fill="#FF6584"/>
<path d="M134.434 179.933C135.294 179.933 135.991 179.235 135.991 178.375C135.991 177.515 135.294 176.817 134.434 176.817C133.573 176.817 132.876 177.515 132.876 178.375C132.876 179.235 133.573 179.933 134.434 179.933Z" fill="#FF6584"/>
<path d="M99.4732 156.316C100.333 156.316 101.031 155.618 101.031 154.758C101.031 153.898 100.333 153.2 99.4732 153.2C98.613 153.2 97.9156 153.898 97.9156 154.758C97.9156 155.618 98.613 156.316 99.4732 156.316Z" fill="#FF6584"/>
<path d="M98.2465 126.257C99.1067 126.257 99.8041 125.56 99.8041 124.7C99.8041 123.839 99.1067 123.142 98.2465 123.142C97.3863 123.142 96.689 123.839 96.689 124.7C96.689 125.56 97.3863 126.257 98.2465 126.257Z" fill="#FF6584"/>
<path d="M162.954 114.295C163.814 114.295 164.511 113.598 164.511 112.738C164.511 111.877 163.814 111.18 162.954 111.18C162.094 111.18 161.396 111.877 161.396 112.738C161.396 113.598 162.094 114.295 162.954 114.295Z" fill="#FF6584"/>
<path d="M114.193 178.399C115.054 178.399 115.751 177.702 115.751 176.842C115.751 175.981 115.054 175.284 114.193 175.284C113.333 175.284 112.636 175.981 112.636 176.842C112.636 177.702 113.333 178.399 114.193 178.399Z" fill="#FF6584"/>
<path d="M106.527 107.795C107.693 107.795 108.638 106.849 108.638 105.683C108.638 104.517 107.693 103.571 106.527 103.571C105.36 103.571 104.415 104.517 104.415 105.683C104.415 106.849 105.36 107.795 106.527 107.795Z" fill="#FF6584"/>
<path d="M127.38 129.879C128.546 129.879 129.492 128.933 129.492 127.767C129.492 126.6 128.546 125.655 127.38 125.655C126.214 125.655 125.269 126.6 125.269 127.767C125.269 128.933 126.214 129.879 127.38 129.879Z" fill="#FF6584"/>
<path d="M154.367 174.353C155.533 174.353 156.479 173.407 156.479 172.241C156.479 171.074 155.533 170.129 154.367 170.129C153.201 170.129 152.255 171.074 152.255 172.241C152.255 173.407 153.201 174.353 154.367 174.353Z" fill="#FF6584"/>
<path d="M131.869 85.967C157.176 85.967 177.691 83.4785 177.691 80.4087C177.691 77.339 157.176 74.8505 131.869 74.8505C106.562 74.8505 86.0469 77.339 86.0469 80.4087C86.0469 83.4785 106.562 85.967 131.869 85.967Z" fill="#A0616A"/>
<path d="M133.005 22.8786C133.005 22.8786 134.416 33.8942 120.793 37.5918C107.171 41.2895 103.663 49.2806 103.663 49.2806C103.663 49.2806 89.0934 53.2787 98.008 62.3298C98.008 62.3298 77.3218 76.6059 97.527 82.491C117.732 88.376 172.317 84.3934 170.029 73.2395C170.029 73.2395 172.868 68.0659 166.287 67.0279C166.287 67.0279 175.452 54.5323 152.314 47.2853C152.314 47.2853 156.077 43.3816 146.009 44.4921C146.009 44.4921 152.285 18.9489 133.005 22.8786Z" fill="#D0CDE1"/>
<path d="M103.427 49.9092L103.391 49.0216C119.579 48.3577 128.469 43.307 133.076 39.1869C138.053 34.7358 139.239 30.3836 139.25 30.34L140.11 30.5636C140.062 30.7497 138.869 35.1748 133.721 39.8021C129.006 44.0395 119.924 49.2326 103.427 49.9092Z" fill="#A0616A"/>
<path d="M97.8526 62.9478L97.6553 62.0815C97.7253 62.0656 104.885 60.439 124.634 56.4391C138.152 53.7011 141.391 50.8874 142.119 49.4539C142.268 49.2146 142.326 48.9293 142.282 48.6507L143.088 48.2789C143.119 48.3449 143.371 48.9485 142.911 49.856C141.933 51.7819 138 54.6384 124.81 57.3098C105.075 61.3071 97.9227 62.9317 97.8526 62.9478Z" fill="#A0616A"/>
<path d="M106.802 66.6063C106.718 66.6063 106.657 66.6061 106.619 66.6059L106.624 65.7174C106.932 65.7213 139.128 65.7617 149.037 55.1088C151.142 52.845 152.096 50.2243 151.871 47.3195L152.756 47.251C153.001 50.4137 151.968 53.2612 149.687 55.7144C139.799 66.3434 109.712 66.6063 106.802 66.6063Z" fill="#A0616A"/>
<path d="M144.512 77.5225C144.483 77.5225 144.467 77.5223 144.462 77.5223L144.475 76.6338C144.626 76.6323 159.993 76.7347 165.905 66.8006L166.669 67.2553C160.665 77.3429 145.503 77.5225 144.512 77.5225Z" fill="#A0616A"/>
<path d="M135.152 22.2652C135.152 22.2652 136.563 33.2807 122.94 36.9784C109.317 40.676 105.809 48.6672 105.809 48.6672C105.809 48.6672 91.24 52.6653 100.155 61.7164C100.155 61.7164 79.4684 75.9924 99.6736 81.8775C119.879 87.7626 174.464 83.78 172.175 72.626C172.175 72.626 175.015 67.4524 168.434 66.4145C168.434 66.4145 177.598 53.9189 154.46 46.6718C154.46 46.6718 158.223 42.7682 148.156 43.8787C148.156 43.8786 154.432 18.3355 135.152 22.2652Z" fill="#D0CDE1"/>
<path d="M105.574 49.2958L105.537 48.4082C121.726 47.7442 130.616 42.6936 135.223 38.5735C140.2 34.1224 141.385 29.7702 141.397 29.7266L142.256 29.9502C142.208 30.1363 141.016 34.5614 135.868 39.1886C131.153 43.4261 122.07 48.6192 105.574 49.2958Z" fill="#A0616A"/>
<path d="M99.9994 62.3343L99.802 61.468C99.8721 61.4522 107.032 59.8256 126.781 55.8257C140.299 53.0877 143.538 50.274 144.266 48.8405C144.415 48.6012 144.473 48.3159 144.428 48.0373L145.235 47.6655C145.266 47.7314 145.518 48.3351 145.058 49.2426C144.08 51.1685 140.147 54.0249 126.957 56.6963C107.222 60.6937 100.069 62.3183 99.9994 62.3343Z" fill="#A0616A"/>
<path d="M108.949 65.9929C108.865 65.9929 108.803 65.9927 108.766 65.9924L108.771 65.104C109.078 65.1079 141.275 65.1482 151.183 54.4954C153.289 52.2315 154.242 49.6109 154.017 46.7061L154.903 46.6376C155.148 49.8003 154.115 52.6478 151.833 55.101C141.946 65.73 111.859 65.9929 108.949 65.9929Z" fill="#A0616A"/>
<path d="M146.659 76.9091C146.63 76.9091 146.613 76.9088 146.609 76.9088L146.622 76.0204C146.772 76.0189 162.14 76.1212 168.052 66.1872L168.815 66.6419C162.812 76.7295 147.65 76.9091 146.659 76.9091Z" fill="#A0616A"/>
</g>
<defs>
<clipPath id="clip0">
<rect width="254.85" height="200" fill="white"/>
</clipPath>
</defs>
</svg>
