<svg width="35" height="35" viewBox="0 0 35 35" fill="none" xmlns="http://www.w3.org/2000/svg">
<path d="M35 0H0V35H35V0Z" fill="#50ABF1"/>
<path d="M4.63696 25.9446C6.96629 27.4219 9.72939 28.2769 12.6913 28.2769C21.0125 28.2769 27.7579 21.5307 27.7579 13.2103C27.7579 13.0026 27.7535 12.7964 27.7455 12.5908C28.0465 12.3539 29.908 10.8619 30.3642 9.90278C30.3642 9.90278 28.8526 10.531 27.3731 10.679C27.3702 10.679 27.3666 10.6797 27.3637 10.6797C27.3637 10.6797 27.3666 10.6782 27.3717 10.6746C27.508 10.5835 29.4138 9.28615 29.6719 7.74033C29.6719 7.74033 28.6027 8.31103 27.1056 8.8103C26.8578 8.89263 26.5984 8.97358 26.3309 9.04861C25.3659 8.01873 23.9942 7.37592 22.4717 7.37592C19.5512 7.37592 17.1847 9.74173 17.1847 12.66C17.1847 13.0718 17.2321 13.4726 17.3217 13.8574C16.9136 13.8407 10.6988 13.4922 6.47078 8.37216C6.47078 8.37216 3.94392 11.8218 7.97659 15.369C7.97659 15.369 6.75071 15.3202 5.69311 14.6882C5.69311 14.6882 5.30465 18.8674 9.87155 19.9359C9.87155 19.9359 8.97291 20.2763 7.53929 20.0336C7.53929 20.0336 8.34101 23.4103 12.3985 23.7259C12.3985 23.7259 9.19003 26.6243 4.6355 25.9442L4.63696 25.9446Z" fill="white"/>
</svg>
